<?xml version="1.0" encoding="UTF-8"?>
<!DOCTYPE svg PUBLIC "-//W3C//DTD SVG 1.1//EN" "http://www.w3.org/Graphics/SVG/1.1/DTD/svg11.dtd">
<!-- Creator: CorelDRAW X7 -->
<svg xmlns="http://www.w3.org/2000/svg" xml:space="preserve" width="200px" height="160px" version="1.1" style="shape-rendering:geometricPrecision; text-rendering:geometricPrecision; image-rendering:optimizeQuality; fill-rule:evenodd; clip-rule:evenodd"
viewBox="0 0 200 160"
 xmlns:xlink="http://www.w3.org/1999/xlink">
 <defs>
  <style type="text/css">
   <![CDATA[
    .fil0 {fill:none}
    .fil1 {fill:#FEFEFE}
   ]]>
  </style>
 </defs>
 <g id="Слой_x0020_1">
  <metadata id="CorelCorpID_0Corel-Layer"/>
  <rect class="fil0" width="200" height="160"/>
  <path class="fil1" d="M60 124c0,0 0,0 0,-1 -4,12 47,16 63,7 4,-2 5,-3 4,-6 -3,5 -8,6 -14,7 -12,3 -35,3 -48,-3 -3,-2 -4,-3 -5,-4zm9 -25c0,-1 0,-1 0,-2 0,-1 1,-2 3,-3 1,-1 3,-1 4,-1 1,0 2,0 3,0l1 1c-1,0 -2,-1 -3,-1 -1,0 -3,1 -4,2 -2,0 -3,1 -3,3 0,0 0,1 0,1l-1 0zm9 -8c1,-1 2,-2 3,-2 1,0 3,-1 4,-1 1,0 2,1 3,2 1,0 1,0 1,1l0 -1c-1,0 -1,0 -1,0 0,-1 -1,-1 -2,-1 -2,0 -3,0 -4,1 -1,0 -2,1 -3,1l-1 0zm20 1c0,0 0,0 1,0 0,0 1,0 1,0 1,0 1,1 2,1 1,1 2,3 2,5l-1 -1c0,-2 -1,-3 -1,-4 -1,0 -1,0 -1,0 -1,0 -1,-1 -1,-1 -1,0 -1,1 -2,1l0 -1zm-16 5c1,-1 1,-2 2,-2 1,-1 2,-2 4,-2 1,0 2,0 3,0 0,0 1,0 1,1l0 -1c0,0 0,0 0,0 -1,0 -2,0 -4,0 -1,1 -2,1 -3,2 -1,1 -2,2 -2,3 2,0 3,0 5,1l0 0c0,0 0,0 0,0 1,0 4,2 4,2l0 0 0 1 -1 -1 0 0 0 0c0,-1 -2,-1 -2,-2 0,0 -1,0 -1,0 -1,-1 -3,-1 -5,0 -2,0 -5,1 -7,2l0 -1c1,-1 4,-2 6,-2 1,0 1,0 1,0l-1 -1zm-26 1c1,0 1,1 1,1 2,0 4,1 6,1l0 0c0,0 1,1 1,1 1,0 1,0 2,0l1 0 -1 1c0,0 0,1 0,1 0,1 0,1 0,1 0,1 1,1 1,1 1,1 2,2 3,1l1 0 0 1c0,1 -1,2 0,2 0,0 0,1 0,1 0,0 1,0 1,1 1,0 2,0 3,0l0 0 0 0c-1,2 0,3 0,4 1,0 2,0 3,0 0,0 0,0 0,0l0 0 0 1c0,0 0,1 1,1 1,0 1,1 1,1 1,0 1,0 2,0 1,0 1,-1 2,-2l0 0 0 0c1,0 2,0 3,-1 1,0 1,-1 2,-1 0,-1 0,-1 0,-2 0,0 0,0 0,0l0 0 0 0c3,0 5,-2 6,-4 1,-1 1,-2 1,-2 1,-1 1,-2 1,-2 0,0 0,0 0,0l-2 -1 1 0c4,-1 8,-1 11,-2 4,-1 7,-2 10,-3l0 0 0 0c1,0 1,0 1,-1 1,0 1,0 1,0 0,0 2,-1 3,-1 1,-1 1,-1 1,-1 1,0 1,-1 2,-1 2,-1 5,-3 6,-4 0,0 -1,0 -1,0 -1,0 -2,1 -2,1 0,0 0,0 0,0l0 0 0 0c-1,0 -2,0 -2,0 -1,0 -1,0 -2,0 0,1 0,1 0,1 0,1 0,1 0,1l0 0 0 0c-1,0 -1,0 -1,0 0,0 -1,0 -1,0 -1,-1 -1,-1 -2,-1 0,0 0,1 -1,1 0,0 0,1 0,1 0,1 -1,1 -1,1l1 1 -1 -1c0,0 0,0 0,0 -1,-1 -2,-1 -2,-1 -1,1 -2,2 -2,2l0 0 0 0c-1,0 -2,0 -3,0 0,0 -1,1 -2,1l-1 1 0 -1c1,-1 1,-1 1,-1 0,0 0,0 0,0 0,-1 -1,-1 -1,-1 0,0 0,0 -1,0l0 0 0 0c0,-2 -1,-2 -2,-2 0,0 -1,0 -1,0 0,0 0,0 -1,0l0 0 0 -1c0,-1 0,-2 -1,-2 0,-1 -1,-1 -1,-2 -1,0 -2,0 -3,0 -1,0 -2,0 -3,0l0 1 0 -1c0,-1 0,-1 -1,-1 0,-1 -1,-1 -2,-2 -1,0 -2,0 -3,0 -2,0 -3,1 -5,3l0 0 0 0c-1,-2 -3,-3 -5,-3 -1,0 -3,0 -4,0 -1,1 -2,2 -3,3 0,1 -1,2 -1,4l1 0 -1 0c0,0 -1,-1 -2,-1 0,0 -1,1 -1,1 -1,0 -1,0 -1,1 0,0 0,1 0,2l0 1 0 0c-1,0 -2,-1 -3,-1 -1,0 -2,1 -2,3l0 0 0 0c0,-1 -1,-1 -1,-1 0,0 -1,-1 -1,0 0,0 0,0 0,0 -1,0 -1,0 -1,1 0,0 0,0 0,0 0,0 0,0 0,0 -1,-1 -2,-1 -3,0 0,0 0,0 0,0zm2 1c-1,0 -2,0 -2,0l-1 0 0 -1c-2,-1 -4,-2 -4,-3 2,0 7,0 12,0 0,0 0,0 1,0 0,0 1,0 2,0 0,0 0,0 1,0 0,0 -1,-1 -1,-1 0,0 0,0 0,0l-1 -1c1,0 1,0 1,0 0,0 0,-1 1,-1 0,-1 0,-1 0,-1 1,0 1,0 2,0 1,0 2,0 2,0 0,-2 0,-3 1,-4 1,-1 2,-2 3,-2 1,-1 2,-1 4,-1 2,1 4,1 5,3 0,0 1,-1 1,-1 -5,-2 -8,-6 -12,-11 0,1 0,1 0,2 0,1 0,3 1,3 1,0 1,-1 1,1 -3,0 -6,1 -8,1 0,0 -1,0 0,-1 2,-1 3,-4 4,-7 -4,-4 -7,-7 -11,-9 -3,1 -2,1 -3,1 0,1 -1,10 -1,12 0,3 -1,5 1,5 2,1 2,1 2,1 -5,1 -9,2 -14,3 0,0 0,-1 2,-2 1,0 3,-2 4,-5 0,-3 1,-23 1,-23 0,-2 0,-3 -1,-3 -1,0 -1,0 -1,0 0,0 9,-3 15,-3 4,-1 5,1 5,3 1,4 -2,7 -6,10 1,0 4,1 8,4 1,-2 1,-4 2,-6 -1,0 -1,-1 -2,0 0,0 -3,2 -4,0 0,-1 1,-2 3,-2 2,-1 3,0 3,0 1,-4 2,-8 2,-9 -1,0 -1,-1 -3,-1 -2,1 -1,0 -1,0 0,-1 12,-4 14,-4 0,1 -2,2 -1,2 1,-1 6,19 8,25 0,1 0,1 1,1 1,0 1,-24 1,-25 0,-1 0,-4 -1,-3 0,0 -1,0 -1,-1 1,0 9,-2 9,-2 1,0 1,0 1,1 1,3 2,9 3,12 3,-4 5,-11 5,-12 1,-1 0,-2 -1,-2 -1,1 -1,0 -1,0 0,-1 32,-8 34,-8 2,0 2,1 3,2 1,2 8,16 8,16 1,-8 1,-13 1,-20 -6,-1 -3,-5 -1,-5 -3,2 -1,3 1,3 3,0 8,-2 10,-5 3,1 -6,7 -7,22 0,5 0,9 0,11 0,1 1,3 2,3 2,0 1,1 1,1 -3,1 -9,2 -10,2 -1,0 -1,0 -1,0 1,-1 3,-3 1,-5 -2,-2 -9,-16 -9,-16 0,7 0,10 0,20 0,2 1,2 2,2 1,0 1,1 0,1 -1,1 -11,3 -11,3 -8,1 -20,3 -24,4 -1,-1 1,-1 1,-1 1,-1 2,-2 2,-3 0,-2 1,-21 1,-21 -4,5 -6,12 -9,20 0,0 0,0 -1,0 -1,-6 -2,-12 -5,-18 0,7 -1,20 -1,21 0,1 2,4 3,3 0,0 0,1 0,1 -2,1 -9,3 -12,3 -1,0 -1,0 -1,-1 0,-2 0,-2 0,-3 -3,-4 -8,-9 -12,-12 0,3 -1,5 -1,7 0,1 1,1 1,2 7,5 8,14 22,14 12,-1 2,-12 1,-5 0,-7 11,0 6,4 4,-1 7,-2 10,-4 12,-7 36,-19 49,-8 3,2 11,9 15,7 0,0 0,0 0,0 1,0 2,0 2,-1 0,0 0,1 0,1 1,-1 2,-2 2,-3 0,0 0,0 0,0 0,0 0,0 -1,0 -1,-1 -1,4 -5,1 -3,-2 -1,-5 1,-7 0,2 1,3 3,4 0,-2 0,-2 -1,-4 0,-1 0,-2 0,-3l1 1c0,-1 0,-2 0,-3 0,-1 1,-2 2,-2l1 1c1,-2 1,-3 3,-4 0,1 -1,2 0,4l1 0 0 1c0,1 1,2 1,1 1,0 1,0 1,0 0,1 1,2 -1,3 -2,1 -2,2 -1,3 1,0 2,-1 3,-1 1,-1 1,-1 1,-1l1 1c0,1 1,1 2,0 0,0 0,0 0,0 0,0 0,0 0,0 0,0 0,1 0,2 -1,1 -1,2 -1,2 0,0 0,0 0,0 0,1 0,1 0,1 0,0 0,0 1,0 -1,2 -2,3 -4,4 -2,0 -4,-1 -5,-2 0,0 -1,-1 -1,-1 -1,-1 -1,0 -1,0 -1,1 -2,2 -3,2 0,3 -1,5 -1,7 2,1 1,4 -1,6 0,0 0,0 -1,0 0,0 0,0 -1,0 1,-2 2,-4 2,-6 -3,-1 -6,0 -4,3 -2,-2 1,-4 4,-4 0,-2 0,-4 0,-5 -4,1 -9,-2 -9,-2 0,0 2,5 1,9 -1,5 2,8 5,7 -1,0 -1,0 -1,1 0,0 -1,0 -1,0 0,0 0,1 0,1 0,0 0,0 0,0 0,1 0,1 1,2 0,0 0,0 0,-1 0,0 0,-1 1,-1 0,-1 0,-2 2,-3 2,0 3,0 4,1 0,0 0,0 0,1 0,0 0,0 0,0 0,0 0,0 0,0 0,0 1,0 2,1 0,0 1,1 1,1 0,0 0,0 0,0 0,0 0,0 0,0 -1,0 -1,0 -2,1l1 0c-1,1 -1,1 -1,1 -2,0 -3,0 -3,0 0,2 1,2 2,3 2,0 2,1 2,1 0,0 0,0 0,0 -1,0 -1,1 -1,2l0 0 0 0c-1,2 -1,3 -2,4 0,0 0,0 0,1l0 0 0 0c0,0 0,0 0,0 0,-1 -1,-2 -3,-3l0 0 -1 -1c0,0 -1,-1 -1,0 0,0 0,0 0,0 -1,-1 -1,-1 -1,-2 1,-1 1,-2 -1,-1 0,0 0,1 -1,2 0,1 0,1 0,1l-1 -1c0,1 -1,1 -1,2 0,0 0,0 0,0 0,0 0,0 0,0 0,0 -1,-1 -1,-2 0,0 0,-1 -1,-1 0,0 0,0 0,0 0,0 0,0 0,-1 0,1 0,1 0,1 -1,-2 -2,-2 -1,-4 1,-1 3,-1 4,-1 0,0 1,0 1,0 1,0 1,-1 1,0 0,-1 0,-1 0,-2 0,0 -1,-1 -1,-1l0 0c0,-1 0,-1 -1,-1 -1,-1 -3,-3 -2,-5 -1,1 -2,2 -3,4 -4,4 -9,5 -12,1 -4,-1 -7,4 -6,7 0,0 0,1 0,1 0,0 1,0 1,0 1,0 4,-1 7,1 2,3 2,4 2,7 -1,0 0,0 -1,0 0,0 0,0 0,0 0,0 0,0 0,0 -1,1 0,2 0,4 -1,1 -1,2 -1,3 0,0 0,0 0,-1 0,0 -1,0 -1,0 0,-1 -1,-1 -2,-1l-1 1c-1,-1 -1,-1 -1,-1 -2,-1 -3,-3 -4,-3 -2,0 -2,2 -1,3 2,3 1,3 1,4 -1,0 -1,0 -1,0 -1,-1 -2,0 -3,1l0 1 -1 -1c-3,3 -3,5 -4,5 -2,-3 -2,-3 -2,-6l-1 1c-1,-1 -1,-3 -1,-4 0,-2 1,-3 1,-4l-2 1c0,-1 2,-3 3,-4 2,-2 2,-2 3,-4 -2,0 -5,1 -7,2 -1,-3 -1,-7 4,-8 7,-1 3,4 6,4 0,0 0,0 1,0 1,-2 2,-5 3,-5 0,0 0,0 1,-1 1,-2 4,-6 7,-4 0,-1 0,-3 0,-4 0,1 0,0 -1,1 0,0 -1,1 -1,1 -1,1 -3,2 -5,2 -2,-1 -2,-2 -2,-4 0,0 0,0 0,0 0,0 0,0 0,-1 0,0 0,0 0,0 0,0 0,-1 0,-2 0,-1 -1,-2 -1,-2 0,0 0,0 1,0 0,0 0,0 0,0 1,0 1,1 2,0l0 -1c0,0 0,0 1,0 1,1 2,2 3,2 2,-1 1,-1 0,-2 -2,0 -1,-1 -2,-2 0,0 1,0 1,0 1,0 1,-1 1,-2l0 -1 0 0c0,-2 1,-5 1,-5 0,0 0,0 0,0l0 0 0 0c0,0 0,0 0,0 1,1 3,1 5,3l0 -1 0 1c1,1 1,1 2,1 0,0 1,-1 1,-1 0,1 1,1 0,3 -1,2 -2,3 -1,5 1,0 2,-2 3,-2 1,0 1,0 1,-1l0 1c1,1 2,0 3,0 0,0 0,0 0,0 0,-1 0,-1 0,-1 0,1 0,2 0,3 -1,1 -1,2 -1,2 0,0 0,0 0,0 0,0 0,0 0,0 0,1 0,0 1,0 -1,3 -1,4 -3,5 -3,1 -4,0 -5,0 -1,-1 -1,-1 -2,-2 0,0 -1,0 -1,0 0,2 -1,5 2,5 2,0 6,1 7,-2 3,-5 5,-10 2,-15 -3,-5 -6,-8 -19,-9 -11,-1 -32,15 -46,19 0,0 1,1 2,1 0,1 0,2 0,3 1,0 1,-1 2,-1 3,0 7,-2 10,-2 0,0 0,1 0,1 -1,1 -6,2 -9,2 0,0 1,1 1,1 10,-2 15,-5 26,-9 7,-2 3,2 -2,7 0,0 0,0 0,0l0 0 0 0c-1,1 -3,3 -5,4 -1,0 -2,0 -2,1 -1,0 -1,0 -2,0 -1,1 -3,1 -3,2l0 0 0 0c0,0 0,0 0,0 -1,0 -1,1 -1,1 -3,1 -7,2 -11,3 -3,1 -6,1 -10,2 0,0 0,0 0,0 2,0 5,-1 7,-1l0 1c0,0 0,0 0,0l0 0c-1,1 -4,1 -7,1 0,0 0,1 0,1 2,0 4,0 6,-1 0,0 1,0 1,0l0 10c-3,0 -8,1 -11,0 0,0 -1,-1 -1,-3 0,0 0,0 -1,0 1,2 1,3 1,4 -1,0 -3,0 -4,0 0,0 0,0 0,0 -1,0 -1,0 -1,0l5 0 2 16 -9 0c-1,0 -1,0 -2,-2 0,-2 -2,-8 -2,-12 -1,0 -1,0 -1,0 1,4 3,11 3,14 -1,-1 -2,-1 -4,-1 -5,-1 -5,0 -6,-3 -1,-4 -3,-9 -5,-14l8 1c0,0 0,0 0,0 -1,0 -1,0 -1,0 -2,-1 -4,-1 -5,-1 -1,-1 -2,0 -3,-2 -1,-2 -3,-6 -3,-8 0,0 1,0 2,0 0,0 -1,-1 -1,-1 0,0 0,0 0,0 0,0 -1,0 -1,0 0,-1 0,-1 1,-1 0,0 0,0 0,0 0,0 0,0 0,0 0,0 0,0 -1,0 0,-1 -1,-1 -1,-1l0 0c-2,0 -4,-1 -5,-2zm-6 37l0 -1c0,0 0,0 1,0 0,-1 1,-2 1,-2 1,0 1,0 0,2 0,0 -1,1 -2,1zm4 -2c1,4 2,7 2,7l-1 1c1,2 1,3 0,4 28,11 59,10 82,-3 0,0 1,1 1,1 0,0 1,0 2,0 0,0 0,0 0,0 0,1 0,1 0,1 -26,16 -60,18 -89,5 -1,0 -1,0 -2,0 -3,0 -4,-1 -7,-2l1 1 -2 -1c-1,0 0,0 -1,0l-1 -1c0,0 -1,-1 -1,-1 0,1 0,1 -1,1 0,1 -1,2 -2,2 -1,1 -2,1 -2,1 -1,0 -1,0 -1,-1l-1 1c-2,-1 -3,0 -4,-3l-1 1c0,0 -2,-4 -3,-7 -2,-2 -2,-6 -1,-8 0,-1 -1,-1 -1,-2 0,-2 0,-3 1,-4 -6,-6 -10,-13 -13,-22 -3,-6 -2,-18 12,-14 1,-8 1,-11 1,-11 -4,-3 -4,-5 1,-8 0,-2 0,-5 0,-6 -1,0 -2,1 -3,3 -5,7 -8,1 -6,-1l0 0c-2,2 1,6 5,1 1,-1 2,-3 4,-4 0,-1 0,0 0,-1 0,0 0,0 1,-1 1,0 3,-1 5,-2 1,-1 1,0 1,0 0,1 0,2 0,3 4,0 7,5 2,7 -1,0 -2,0 -3,1 0,1 0,1 0,2l0 0 0 0 0 0c0,1 0,1 0,2 6,0 13,-5 13,-12 -1,-8 -8,-9 -15,-8 0,0 -14,4 -17,15 -3,10 0,12 0,12 2,1 5,1 6,-2 0,-1 -1,0 -2,0 0,0 -1,0 0,1 -1,0 -1,-1 0,-2 3,-2 4,3 -1,4 -5,1 -7,-3 -7,-3 0,0 -2,-7 2,-12 -2,1 -6,0 -5,-4 1,-1 4,-2 3,0 0,-2 -1,-1 -1,-1 -3,4 3,6 5,2 8,-11 32,-17 37,-5 3,7 -3,14 -9,16 -5,0 -8,0 -9,0 0,1 0,3 -1,4 3,1 10,2 10,7 5,-3 9,3 15,2 3,0 7,-2 8,-4 1,-1 1,-2 2,-4 0,-2 -1,-4 -3,-5 -2,-1 -2,2 -1,1 1,0 1,0 0,-1 2,1 0,3 -1,1 -1,-1 1,-2 2,-2 2,0 4,2 4,6 0,2 -2,6 -6,8 0,0 -2,2 -7,2 -5,0 -7,-3 -10,-3 -2,0 -4,1 -5,3 3,2 5,11 4,13 -1,2 0,3 1,3 0,0 1,0 1,0 4,-2 9,4 9,4 1,0 3,2 3,4 0,0 0,0 0,1 0,0 1,1 1,1 2,3 1,7 1,8 0,0 0,0 0,0 0,3 -1,5 -1,7 -1,0 -1,1 -1,1zm-31 -12c0,0 0,0 0,0l0 0 0 0zm6 -2c1,0 2,0 3,0 -1,-1 -1,-3 0,-6 1,-4 4,-5 5,-5 0,-1 -1,-3 0,-5 1,-5 -2,-11 -4,-10 -2,0 -4,1 -5,1 -1,6 -1,8 -1,15 0,2 1,6 2,10zm10 26c1,0 1,0 2,1 -1,-1 -1,-2 -2,-2 0,0 0,0 0,1zm1 -3c1,0 2,0 2,0 0,-1 0,-1 0,-2 0,-1 0,-2 0,-3l0 1c0,1 0,1 0,1l-1 2 -1 -1c0,1 0,1 0,2zm5 -5c1,1 1,1 1,2 0,0 -1,-2 -2,-2 -1,0 -1,1 -1,1 0,1 0,1 0,2 1,1 2,1 3,1 0,1 2,1 2,0 0,-1 1,-2 0,-4 0,0 0,0 -1,0 -1,0 -1,0 -2,0zm4 -1l0 0 1 1 0 -1c0,0 -1,0 -1,0zm2 1l1 0c1,0 0,-1 0,-2 0,1 -1,1 -1,2zm-10 -2c0,1 0,2 0,3 -1,-1 -1,-2 0,-4 0,0 0,1 0,1zm-2 -2c0,2 -1,4 -2,4 0,-1 -1,-1 -1,-1 -2,-2 -3,-2 -2,-4 1,-2 1,-4 3,-1 0,1 0,2 0,3 0,0 0,0 0,0 1,-1 1,-2 0,-3 1,0 0,0 1,1 0,0 1,1 1,1zm-5 -9c-1,0 -2,-1 -3,-1 0,0 -1,-1 -1,-1 1,-1 1,-1 2,-1 0,1 0,1 0,1 0,0 1,0 1,0 0,0 1,1 1,2zm11 11c1,-2 2,0 3,0 0,0 0,-1 1,-1 0,0 0,2 -1,2 -1,0 -3,0 -3,-1zm8 -4c0,-2 1,-2 1,-4 1,1 0,2 0,3 0,0 -1,1 -1,1zm-9 -1c1,2 3,2 4,2 -1,1 -1,1 -1,1 0,0 0,0 -1,0 -1,0 -1,0 -1,-1 -2,0 -2,-1 -1,-2zm1 -1c1,1 1,1 2,1 0,0 1,0 1,1 1,-1 1,-2 1,-2l1 1c0,0 0,-1 0,-2l0 0c0,0 0,0 0,0 1,0 1,1 2,2 -1,1 -1,1 -2,2 0,0 0,0 -1,0 -1,-1 -3,-1 -4,-3zm-6 2c1,1 3,2 3,3 1,-1 1,-1 1,-1 0,0 0,1 0,1l-2 -1c-1,0 -2,-1 -2,-2zm13 -3c0,-1 0,-1 -2,-2 0,-1 0,-1 1,-2 0,1 0,1 1,1 0,0 0,-1 0,-2 0,0 0,0 1,-1 0,0 0,0 0,0 0,0 0,0 0,-1 1,2 1,3 0,4 0,1 0,2 -1,3zm-11 -5c1,0 1,1 3,1 1,0 1,1 2,2 0,-2 -1,-3 0,-4 0,0 1,1 2,1 0,0 0,0 1,0 0,1 0,1 0,2 0,1 -1,3 -1,4 -1,-1 -3,-1 -4,-2 -2,0 -2,-2 -3,-4zm14 0c-1,-1 -2,-4 -2,-6 1,1 2,4 2,6zm-13 9c0,0 0,0 0,0 -2,-1 -4,-3 -3,-6 0,1 1,2 1,3 0,-1 0,-2 0,-3 0,0 0,-1 0,-2 1,1 1,2 1,2 0,1 1,2 1,2 0,0 0,3 0,4zm-5 -3c-1,-1 -2,-3 -2,-4 1,0 1,1 2,0 0,0 0,-1 0,-2 0,0 1,-1 2,-1 0,1 -1,2 -1,3 -1,1 -1,2 -1,4zm11 -14c0,0 1,0 2,1 2,2 2,6 1,7 -1,-1 -3,-1 -4,-2 -2,-1 -1,-2 -1,-3 0,0 0,-1 1,-2 1,0 3,3 3,4 1,-2 -1,-4 -2,-5zm-4 7c-1,1 -3,0 -4,-1 -1,-2 0,-2 0,-4 0,-1 0,-1 0,-1 1,1 1,1 2,3 0,-1 -1,-3 -1,-5 0,-1 0,-1 0,-1 1,-1 3,-1 4,0 1,2 0,4 0,5 0,1 -1,3 -1,4zm2 -9c0,-2 5,-1 6,3 -1,-1 -2,-2 -4,-3 -1,0 -1,0 -2,0zm-10 10c-1,-1 -3,-3 -3,-4 0,-2 0,-4 2,-4 0,0 -1,3 0,4 0,-2 0,-3 1,-4 0,-2 1,-3 3,-3 0,2 0,5 -1,6 0,1 -1,2 -1,3 -1,0 -1,1 -1,1 0,1 0,1 0,1zm7 -15c2,-1 4,0 5,2 -3,0 -2,0 -5,1 0,0 -1,0 -2,0 -1,0 -1,0 -2,0 0,-1 1,-2 2,-2 2,0 2,0 3,0 -1,-1 -1,-1 -1,-1zm-10 6l0 0c0,-1 0,-1 1,-2 0,0 0,-1 1,-1 1,-1 3,-3 4,-2 0,0 -2,2 -2,3 -2,1 -3,2 -4,2zm6 22c0,0 0,1 0,1 0,0 0,0 0,1 0,0 0,0 0,0 0,1 -1,3 -2,4 -1,-2 -2,-3 -1,-4 1,1 1,1 1,1 1,0 1,-1 2,-2 0,0 0,-1 0,-1zm-10 -13l1 1c-1,2 -2,3 -4,5 -1,1 -2,2 -3,4 0,-1 -1,-2 -1,-2 0,-1 0,-2 0,-3 0,-1 1,-3 2,-3 0,0 0,1 0,3l0 1c0,-2 0,-2 1,-3 1,-1 2,-2 2,-2l0 0c1,0 1,-1 2,-1zm-1 -1c-1,0 -3,1 -5,1 1,-1 1,-1 1,-1 1,0 6,-1 6,-1l-2 1zm-6 11c1,1 1,2 2,2 0,-1 1,-4 3,-3 -1,2 -3,3 -4,6 -1,-2 -1,-3 -1,-5zm6 13c1,-2 3,1 3,1 1,-1 1,-1 1,-1 0,1 0,2 -1,2 -1,0 -2,-1 -3,-2zm-4 -6c0,1 1,2 1,2 1,1 1,1 2,2 0,0 0,0 0,0 0,0 0,-1 0,-1 0,1 0,1 0,2l-2 -3c-1,-1 -1,-1 -1,-2zm5 1c1,1 1,2 2,3l0 1 -2 -2c-1,-1 -1,-2 0,-2zm4 7l0 -1c0,0 0,0 0,0 2,0 2,-1 3,-1 0,1 -2,1 -2,2 -1,0 0,0 -1,0zm-6 -13c0,0 0,1 0,2 0,1 1,1 1,2l-1 3c-1,-1 -2,-2 -2,-3 -1,-1 -1,-1 0,-3 0,0 0,0 0,0 0,1 1,2 1,3 0,-1 0,-3 1,-4zm10 10c0,-2 1,-2 2,-4 0,1 0,3 -2,4 0,0 0,0 0,0l0 0zm-2 -4c1,0 1,2 1,2 0,1 -2,2 -2,2 -1,0 -1,-1 -2,-2 0,0 -1,-1 -2,-2 1,1 2,1 3,2 0,-1 0,-1 1,-1 0,0 0,1 0,1 1,0 1,-1 1,-2zm0 -4c0,1 0,1 -1,2 0,1 -1,2 -2,2 -2,-2 -4,-3 -4,-7l3 2c1,1 1,1 1,2 0,-1 0,-2 0,-3 1,-1 1,0 2,0 0,1 1,1 1,2zm-2 -12c0,0 1,1 1,1 0,1 0,1 0,2 0,1 0,3 -1,3l-2 3c-1,0 -2,-1 -3,-2 0,0 -1,-2 0,-2l2 -3c0,1 0,3 0,3l0 -1c0,0 0,-1 1,-2 0,-2 0,-3 2,-2zm7 18c0,0 0,1 1,1 0,0 0,0 0,0 0,0 0,0 0,0 2,1 3,2 5,1 -1,-1 -1,-3 -2,-3 0,1 0,1 0,2 -1,0 -2,0 -3,-1 0,0 0,0 -1,0zm14 -1c0,1 -1,2 -1,2 -1,0 -1,-1 -2,0 1,0 3,1 3,1 0,-1 1,-2 0,-3zm-1 -8c0,1 0,2 1,3 0,0 0,1 0,2 0,0 0,0 0,0 0,0 -1,-1 -1,0 0,0 1,0 2,0l-1 -3c-1,-1 -1,-1 -1,-2zm-3 4c1,2 1,3 1,5l2 0 0 -2c0,-1 -2,-3 -3,-3zm2 9l0 -1c0,0 0,1 0,1 -1,1 -2,0 -3,0 1,1 2,0 3,0 0,0 0,0 0,0zm-4 0c-1,-1 -2,0 -4,0 0,0 2,1 4,1 0,0 0,0 0,0l0 -1zm-1 -4c-1,1 0,2 1,3 0,0 2,0 2,0 0,-2 0,-2 0,-3 0,-1 0,-2 -1,-3 0,1 0,2 0,3 0,0 -1,0 -1,0 0,1 0,1 1,1 -1,0 -2,0 -2,-1zm106 -54c0,0 0,0 1,0 3,-1 3,1 4,1 1,1 1,1 1,0 0,0 0,0 -1,-1 -1,0 -1,0 -1,-1 1,0 3,1 5,0 0,0 0,0 0,0 -1,0 -1,1 -3,0 1,-1 4,-3 3,-4 0,0 0,2 -4,3 2,-2 1,-1 2,-3 0,-1 0,-1 0,-1 0,0 0,1 -1,1 0,2 0,3 -2,4 0,0 -1,0 -2,0 1,-1 2,-2 2,-2 0,-1 0,-1 0,-1 0,0 0,0 0,0 0,0 0,0 0,0 0,0 0,0 0,0 -1,1 -2,3 -3,3 0,0 0,0 -1,0 0,0 0,0 0,0 0,0 0,0 0,-1 2,-1 0,-3 3,-6 0,-1 1,-2 1,-2 -1,0 -3,3 -3,4l0 0c-2,-3 1,-4 0,-5 0,0 -1,1 -1,2 -1,-1 0,-3 -1,-4l0 0c0,0 0,0 0,1 0,3 1,4 1,6l0 1c-1,-1 -3,-2 -4,-2 0,1 2,1 2,1 3,1 3,3 1,4 0,1 0,1 0,2 0,0 0,0 0,-1 0,0 0,0 -1,0 -1,0 -2,-1 -2,-2 0,0 0,0 0,0 0,0 0,0 0,0 0,0 0,0 0,0 -1,0 -1,0 0,1 0,0 1,1 1,1 0,1 -1,1 -1,1 -2,-1 -2,-2 -2,-3 -1,-1 -1,-1 -1,-1 0,0 0,0 0,1 1,1 0,1 1,2 -3,0 -2,-2 -3,-2 -1,2 2,3 3,3 -2,1 -2,0 -3,1 0,0 0,0 1,0 1,1 2,-1 4,-1 -1,1 -1,1 -1,2 -1,0 -1,0 -2,1 1,0 1,0 1,0 2,-1 1,-3 5,-3 0,0 0,0 0,0 0,0 0,0 0,0 0,0 1,0 1,0zm-16 -59c1,0 5,-3 5,-8 0,0 0,0 0,0 0,0 1,0 1,0 0,0 0,0 0,0 0,3 0,7 0,8 0,0 0,1 -1,1 -1,0 -4,0 -5,0 -6,1 -26,6 -31,7 -2,-4 -12,-18 -12,-18l0 16c0,2 1,3 3,3 0,0 1,-1 0,0 -2,1 -7,2 -10,2l-26 5c0,0 0,0 0,0 0,-1 2,-3 0,-6 -1,-1 -4,-6 -8,-8 0,1 -3,12 -3,13 -1,1 0,2 2,2 0,0 1,0 1,1 -3,0 -8,1 -8,1 -1,0 0,0 0,0 1,-1 2,-2 3,-4 2,-3 4,-12 4,-13 -2,-2 -8,-5 -13,-3 -1,1 -2,1 -3,3 -1,2 0,5 2,5 1,0 2,0 2,-1 1,-1 -1,-2 -1,0 -1,-1 0,-2 1,-1 1,0 1,3 -2,3 -1,0 -2,0 -3,-1l0 0 0 0c0,-1 -1,-2 0,-3 0,-2 0,-3 1,-4 1,0 2,-1 3,-2 4,-1 10,0 14,3 0,-3 3,-11 -3,-11 2,0 5,-1 6,-1l1 -1c2,0 3,-1 3,0 0,0 0,2 0,3l9 22 9 -16c0,0 -3,-2 -5,1 2,-5 7,-4 7,-4 1,-3 3,-5 3,-8l-8 1c-2,0 -3,2 -4,6 -1,-2 1,-6 -1,-6 -1,0 0,0 0,0 17,-3 20,-6 26,-5 1,0 13,17 13,17 0,-5 0,-10 0,-16 0,-1 0,-3 -3,-2 -1,0 -1,0 -1,0 4,-1 8,-2 8,-2 1,-1 1,0 1,0 -1,1 -2,3 -2,5 -1,2 -1,18 -1,18 0,2 1,3 2,3 1,0 2,-1 2,-3 1,-4 1,-8 1,-12 -1,1 -3,2 -3,4 -2,-3 3,-6 3,-6 0,-2 0,-7 0,-8 0,-1 0,-1 0,-1 -1,0 -1,0 0,1 -2,-1 -1,-2 0,-2 2,0 4,0 5,0 0,-2 -6,-8 -12,-6 8,-4 13,2 15,4 1,-2 2,-3 1,-5 2,0 4,1 5,2 -1,1 -3,2 -4,4 1,-1 4,-1 4,-1 1,0 1,0 1,0 0,1 1,4 -1,6 0,-2 0,-4 -1,-4 -1,-1 -6,0 -7,1 0,1 0,7 0,7 1,1 7,3 11,1 1,-1 2,-1 3,-3 0,-1 -1,-2 -1,-1 0,0 -1,0 0,1 -1,-1 -1,-2 0,-2 1,0 1,0 1,1 1,3 -1,5 -4,7 -3,1 -7,1 -10,0 0,6 0,9 0,12 3,0 10,-2 15,-2zm43 45c0,-1 -1,-1 -2,0 -1,0 -1,1 -2,1l1 -1c-1,0 -1,0 -1,0 0,0 0,0 0,0 -2,0 -2,-1 -2,-2 1,1 0,1 1,1 0,0 0,0 0,0l0 -1c0,0 0,-1 0,-1 0,0 0,0 0,1 1,4 3,0 5,1 1,-3 0,-3 -1,-5 -1,-1 -1,-1 -1,-1 1,0 2,2 2,2 1,-3 -1,-5 0,-6 0,0 0,0 0,1 0,1 1,1 1,2 0,-1 1,-4 1,-4 0,0 0,0 0,0l0 -1c0,1 -1,3 -1,5 1,-1 2,-2 2,-2 0,1 -2,1 -2,4l0 1c1,-2 4,-3 4,-3 0,1 -1,1 -2,1 -3,2 -2,4 -2,6 0,0 0,0 0,1 0,0 0,0 0,0 0,0 0,0 1,0 1,0 2,-2 3,-3 0,0 0,0 0,0 0,0 0,0 0,0 0,0 0,0 0,0 0,1 0,0 0,1 0,0 -1,1 -2,2 1,0 1,0 2,0 1,-1 2,-2 2,-3 1,-1 1,-1 1,-1 1,0 0,0 0,1 -1,1 0,1 -2,2 3,0 4,-2 4,-2 1,2 -3,3 -4,3 3,1 3,0 4,1 0,0 0,0 -1,0 -1,1 -3,-1 -5,-1 1,1 1,1 2,2 0,0 0,0 1,1 -1,0 -1,0 -1,0 -2,-1 -1,-3 -5,-3 0,0 0,0 0,0 0,0 -1,0 -1,0zm-8 22c0,0 0,0 0,0 3,-1 1,-2 2,-3 0,-1 0,-1 1,-1 0,1 0,1 -1,1 0,1 0,1 0,2 2,-1 2,-3 3,-3 1,0 1,0 1,0 -1,1 -1,0 -2,2 1,0 3,-1 4,0 -1,1 -2,0 -4,0 2,1 1,1 3,2 0,0 0,0 0,0 0,0 -1,0 -1,0 -1,-1 -2,-1 -3,-1 -1,0 -1,0 -1,1 0,0 1,0 2,0 0,0 0,0 0,0 0,0 0,0 0,0 0,0 0,0 0,0 0,0 0,1 0,0 -1,0 -2,0 -3,0 0,0 0,0 -1,0 0,1 0,1 0,1 0,0 0,0 0,0 2,0 3,2 6,3 0,0 1,0 1,1 0,0 -3,-1 -4,-2l0 0c1,3 3,2 3,3 0,1 -1,0 -2,-1 1,2 2,3 2,3l0 0c0,0 0,0 0,0 -3,-2 -2,-3 -3,-5l0 0c0,2 -1,3 -2,3 0,0 1,-1 1,-1 1,-2 0,-4 -2,-3 0,-1 0,-1 0,-1 -1,0 -1,0 -1,0 0,0 0,0 0,0 -1,1 0,2 0,3 0,0 0,0 0,0 0,0 0,0 0,0 0,0 0,0 0,0 -1,0 0,0 -1,0 0,0 0,-1 0,-2 0,0 0,1 -1,1 0,1 0,2 1,3 0,0 0,0 0,1 -1,0 -1,-1 -1,-1 0,-1 0,-1 0,-2 -2,1 -1,3 -1,3 -1,-1 0,-3 0,-4 -2,1 -1,1 -2,2 0,0 0,-1 0,-1 0,-1 3,-1 3,-2 0,0 -1,0 -1,0 -1,0 -1,0 -2,0 1,0 1,0 1,0 1,-1 2,1 4,-1 0,0 0,0 0,0l1 0 0 -1zm-32 47c1,-1 1,-1 1,-1 0,0 0,0 0,0 1,1 1,1 1,1 1,0 2,-1 2,-1 0,0 0,0 0,0 0,0 1,0 1,1 0,1 -1,2 -2,3 -1,0 -2,-1 -3,-2 0,-1 0,-1 0,-1zm0 -1c0,0 0,0 0,0 -2,0 -3,-2 -2,-3 0,0 0,-1 0,-1 0,0 0,1 1,1 0,0 0,-1 1,-1 0,1 0,1 0,1 -1,1 0,2 0,3l0 0zm1 -4c0,0 0,1 0,1 0,0 0,0 1,0 0,0 0,0 0,0 0,0 0,0 0,0 0,0 1,0 1,0 0,0 0,1 0,2l1 0c0,0 0,0 0,0 0,1 -1,1 -1,1 0,0 -1,0 -1,0 -1,-1 -2,-1 -2,-2 0,-1 0,-1 1,-2l0 0zm2 1c1,0 1,0 2,-1 0,0 0,0 0,0 0,0 0,0 0,0 0,0 0,-1 0,-1 1,0 1,0 1,0 0,0 0,0 0,0 1,0 1,0 2,0 0,1 0,1 0,1 0,2 -1,3 -2,3 -1,1 -3,-1 -3,-2zm-2 -3c0,0 1,0 2,0 0,0 0,0 0,0 0,0 0,0 0,1 1,0 2,0 2,0 0,1 -1,1 -1,1 -2,1 -3,0 -3,-2zm-1 1c0,1 -1,1 -1,1 -1,0 -2,-1 -2,-2 0,-1 0,-1 0,-2 0,0 0,0 1,0 0,0 0,0 0,0 0,0 1,0 1,0 0,1 0,1 0,1 0,0 0,0 1,0 0,0 0,1 0,1 0,0 0,0 0,1 0,0 0,0 0,0zm-4 -3c0,0 0,0 0,0 0,1 0,1 0,1 0,0 -1,-1 -1,-1 0,0 -1,-1 -1,-2 0,-1 0,-1 1,-1 0,0 0,0 0,1 0,0 0,1 1,1 0,1 0,1 0,1zm-1 -3c1,0 2,0 2,-1 0,0 0,0 0,0 1,0 1,0 2,0 0,0 0,0 0,1 0,0 0,0 1,1 0,1 -1,2 -2,2 0,0 -1,0 -1,-1 -1,0 -2,-1 -2,-2zm4 3l1 0c0,-1 0,-1 0,-2 0,0 0,0 1,0 0,1 1,1 2,0 1,1 0,2 0,2 0,1 -2,2 -3,1 0,0 0,0 0,0 0,0 0,0 0,0 0,-1 -1,-1 -1,-1zm4 1c0,0 1,0 1,0 0,-1 0,-1 0,-2l0 0c0,0 0,0 0,0 1,0 1,0 1,0 0,1 1,1 2,1 0,0 0,0 0,0 1,0 0,0 0,1 0,1 -1,2 -3,1 0,0 0,0 0,0 0,0 -1,-1 -1,-1zm5 -2c0,0 1,0 1,-1 0,0 0,1 0,1 0,0 0,0 0,0 1,0 1,0 1,0 0,1 0,2 0,3 -1,0 -1,0 -1,0 -1,1 -2,1 -2,0 0,0 0,0 0,0l0 0c1,0 1,0 1,-1 0,0 0,-1 0,-2zm-1 -3c1,0 1,-1 1,-1 0,0 0,-1 0,-1 1,0 1,0 1,0 1,0 1,0 2,0 0,0 1,0 1,-1 1,0 1,1 1,2 0,2 -2,4 -4,3 -1,-1 -2,-2 -2,-2zm-2 0c0,0 0,0 0,0 1,0 1,0 1,0 0,0 1,0 1,0 0,0 0,0 0,1 0,0 0,0 0,0 0,0 0,1 1,1l0 0c0,0 0,0 0,0 0,0 -1,1 -1,1 -1,1 -3,0 -2,-2 0,0 0,0 0,0 0,-1 0,-1 0,-1zm-5 -1c1,0 2,0 2,-1l1 0c0,1 0,1 0,1 0,0 0,0 1,1 0,0 0,0 0,0 0,1 -1,2 -3,2 -1,0 -1,-1 -1,-2 0,-1 0,-1 0,-1 0,0 0,0 0,0zm-3 -1c0,0 0,-1 0,-1 1,0 1,0 1,0 0,0 0,0 0,0 0,0 0,0 0,0 0,0 1,1 1,1 0,0 0,0 1,1 -1,0 -2,1 -2,0 -1,0 -1,0 -1,-1 -1,0 0,0 0,0zm-1 2c0,0 0,0 0,0 0,0 0,0 0,0 -1,1 -2,0 -3,-2 0,-1 0,-1 1,-1 0,-1 0,-1 0,-1l0 0c0,1 1,1 2,2 0,0 0,0 0,1 0,0 0,0 0,0 0,1 0,1 0,1zm-4 -4c0,0 0,0 1,0 0,0 0,1 0,2 0,0 0,0 0,0l0 0c-1,0 -1,0 -1,-1 0,0 0,-1 0,-1zm3 0c0,0 0,-1 1,-1l0 1 1 -1 0 0c0,0 0,0 0,0 0,0 0,0 0,0 0,0 0,0 0,0 0,0 1,1 1,1 0,0 -1,1 -2,1 0,0 -1,0 -1,-1 0,0 0,0 0,0zm4 0c1,0 1,0 2,0 0,0 0,0 0,0 0,0 1,-1 1,-1 0,0 0,0 0,0 0,1 0,1 0,1 1,1 1,0 1,1 -1,0 -1,1 -2,1 0,0 -1,0 -1,0 0,0 -1,-1 -1,-1 0,0 0,-1 0,-1zm4 1c0,0 1,0 1,0 1,0 2,0 2,0 1,0 1,0 1,-1 0,0 0,0 0,0 0,1 0,1 0,1 0,0 1,0 1,0 0,2 -2,3 -4,2 0,0 -1,-1 -1,-1 0,-1 0,-1 0,-1zm5 -3c0,0 0,0 0,0 1,0 1,0 1,0 0,0 1,0 1,0 0,0 0,0 0,0 1,0 1,1 2,1 0,0 0,0 0,0 0,0 0,0 1,0 0,2 -2,3 -4,3 -1,-1 -1,-2 -1,-3 0,0 0,-1 0,-1zm-6 0c1,0 1,0 2,0 0,0 1,0 2,-1 0,0 0,0 0,0 0,0 0,0 0,-1 0,1 1,1 1,1 0,1 0,1 0,1 0,0 0,0 0,1 0,0 0,0 0,0 0,0 0,0 0,0 0,0 0,1 -1,1 0,0 -1,1 -2,1 -1,-1 -1,-1 -1,-2 -1,0 -1,-1 -1,-1zm-3 -3l1 0c0,0 0,1 0,1 0,0 0,0 0,1 1,0 1,1 2,1 0,0 0,0 -1,1 0,0 0,0 -1,0 -1,1 -2,0 -3,-1 0,0 0,0 0,0 1,0 1,-1 1,-2 0,0 1,0 1,0l0 0c0,0 0,-1 0,-1zm-6 -1c0,1 0,1 1,2 0,1 0,1 1,2 -1,2 -2,2 -3,1 -1,0 -1,0 -1,-1 0,0 0,0 -1,-1 0,-1 0,-2 1,-2 0,-1 0,-1 1,-1 0,0 0,0 0,0 0,0 0,0 0,0l1 0 0 0zm-3 1c0,0 0,-1 -1,-1 0,0 0,-1 0,-2l0 0c1,1 1,1 1,1l1 0 -1 1c0,0 0,0 0,0 0,0 0,1 0,1zm21 2c0,0 0,0 0,0 1,0 1,-1 1,-1l0 -1c0,0 0,0 1,0 0,1 1,1 2,0 0,0 0,0 0,0 0,0 0,1 0,1 0,1 0,1 -1,2 0,0 -2,0 -2,0 -1,0 -1,0 -1,-1zm-4 -3c0,0 1,0 1,0 0,-1 1,-1 1,-1 1,0 1,0 1,0 0,0 1,1 1,1 0,0 0,1 1,1 0,0 0,0 0,0 0,0 -1,1 -1,1 -1,1 -2,2 -3,1 -1,0 -1,-1 -1,-1 0,0 0,0 0,0 0,-1 0,-1 0,-1 0,0 0,0 0,-1zm-5 -1l1 0c0,0 0,1 1,1 0,1 1,1 2,1 0,0 0,1 -1,2 -1,0 -1,1 -2,0 -1,0 -2,-1 -2,-1 0,0 -1,-1 -1,-1l1 0 1 -2c0,0 0,0 0,0zm-13 -3c0,-1 0,-1 1,-2 0,0 0,-1 1,-1 0,0 0,1 0,1 0,0 0,0 0,1 0,1 0,1 0,2 0,1 0,1 1,2 -1,0 -1,0 -1,0 0,0 -1,-1 -1,-1 0,-1 -1,-1 -1,-2zm16 -2c1,0 1,0 2,0 0,0 1,0 1,0 0,0 0,1 0,1 0,1 1,1 1,2 0,1 -1,1 -1,2 -2,1 -4,1 -5,0 0,0 0,0 1,0 0,0 0,0 0,0l1 1 0 -2c0,0 0,0 1,0 0,-1 0,-2 -1,-4zm6 4c0,0 0,0 0,0 1,0 1,0 1,0 0,0 1,-1 1,-1 0,0 0,-1 0,-1 0,0 0,0 0,0l0 0 1 1 1 -1c0,0 0,0 0,0 0,0 1,1 1,3 0,2 -3,3 -5,1 0,-1 0,-1 0,-2zm2 -3c-1,2 -2,3 -3,3 0,0 -1,0 -1,0 0,0 0,0 0,0 0,-1 0,-2 0,-3 0,0 0,0 0,0l1 1 1 -2c0,1 1,1 1,1 0,0 0,0 1,0zm3 1c0,0 0,0 0,0 1,0 1,-1 1,-1 0,1 0,1 0,1 0,1 0,1 0,1 0,0 0,0 0,0 0,0 0,0 0,0 -1,-1 -1,-1 -1,-1zm-1 -3c1,0 2,0 2,0 0,-1 0,-1 0,-1 0,0 0,0 1,0 0,1 -1,2 -1,3 -1,0 -1,1 -2,1 0,-1 0,-2 0,-3zm-26 0c0,-1 1,-2 1,-2 0,0 0,-1 0,-1 1,0 0,1 0,1 0,0 0,0 0,0 0,1 0,1 0,2 0,0 0,0 0,0 0,0 0,0 0,0 0,0 0,0 0,0l-1 0c0,0 0,0 0,0 0,0 0,0 0,0zm2 -4c0,0 0,-1 0,-2 1,0 1,-1 2,-1 0,1 0,1 0,1 0,1 0,1 0,1 0,0 -1,0 -1,0 -1,1 -1,1 -1,1zm2 -2l0 0c0,0 0,-1 1,-1 0,-1 1,-1 2,-1 0,0 -1,1 -1,1 -1,0 -1,1 -2,1zm14 7c0,0 0,0 0,0 -1,0 -2,-1 -3,-2 0,0 0,0 0,0 0,0 0,0 1,-1 0,1 1,1 1,1 0,1 1,1 1,2zm10 -7c0,0 1,1 1,1 0,1 0,1 0,1 0,2 -1,3 -3,3 0,-1 0,-1 0,-2 0,0 0,0 0,0 1,0 1,0 1,0l1 0 0 -1c0,0 0,-1 0,-1 0,0 0,0 0,-1zm-1 -3c0,0 1,1 1,1 0,0 0,1 0,1 0,0 0,0 0,0 0,0 0,-1 -1,-2zm-15 -1c-1,0 -2,0 -3,-1 -2,-2 -1,-3 -3,-3l1 1c0,0 0,0 0,0 0,0 0,0 -1,0 -2,-1 -3,0 -3,1 1,0 1,0 2,-1 0,1 0,0 0,1l-1 1c-1,0 -1,0 -1,1 1,0 1,0 1,0 4,-5 3,1 7,0 -1,4 -1,4 -4,6 -2,2 -2,1 -2,2 1,0 4,-2 4,-2 0,5 -5,5 -4,7 1,0 0,0 1,-1 1,-1 1,-1 2,-2 0,1 -1,5 -1,6 0,0 0,0 0,0l0 0c1,-1 1,-3 2,-5 0,1 0,3 1,3 1,-1 -2,-4 0,-7l0 0c1,2 3,5 4,6 1,-1 -1,-3 -2,-3 -3,-4 -1,-7 0,-8 0,-1 0,-1 0,-2 1,0 1,0 1,1 1,0 1,0 1,0 2,1 2,3 2,4 0,1 0,0 1,1 0,0 0,0 0,0 0,0 0,0 0,0 0,-1 0,0 0,-1 0,-1 -1,-3 -1,-3 0,0 1,0 2,1 2,1 2,2 2,4 0,1 0,2 0,3 1,-1 1,-1 1,-2 -1,-2 0,-2 -1,-4 4,2 3,5 4,5 1,-2 -3,-5 -4,-6 4,-1 4,1 5,1 0,0 1,0 0,-1 -2,-2 -5,0 -7,-1 1,-1 1,-1 2,-2 1,0 2,0 3,0 -1,-1 -1,-1 -2,-1 -3,1 -3,3 -7,1 -1,0 -1,0 -1,0l-1 0zm1 -1c0,0 1,0 1,0 0,0 0,0 0,0 0,0 1,0 1,-4 0,0 0,0 0,0 0,0 -2,2 -2,4zm33 -35c-2,-11 -4,-20 2,-32 -3,7 -2,20 -1,30 0,0 0,1 0,1 0,1 0,2 0,3 1,0 1,0 1,1l0 0c-1,-1 -1,-1 -2,-2l0 -1 0 0zm-5 38c-4,10 -10,18 -17,24 0,1 0,1 0,2 -1,1 -2,1 -2,1 -1,0 -1,0 -1,0 0,1 0,1 0,1 1,1 1,2 0,3 0,0 0,0 0,0 6,-6 12,-12 17,-20 2,-4 3,-8 5,-12 0,0 0,0 0,0 -1,0 -1,0 -1,-1 0,1 0,1 0,1 0,0 0,0 0,0 0,0 0,0 0,0l-1 1 0 0zm-22 32c0,0 1,0 1,0 0,0 -1,0 -1,0l0 0c0,0 0,0 0,0zm-131 -120c-9,-2 -5,-8 -3,-8 -4,2 -1,4 2,4 5,1 14,-3 17,-7 3,1 -7,2 -10,16 -1,4 -1,28 1,28l11 -2c0,0 8,0 10,-11 0,-1 0,-1 0,0 1,5 -1,9 -1,12 0,1 0,1 -1,1 -1,0 -1,-1 -2,-1 -4,0 -19,3 -33,7 -1,0 -4,0 -4,-2 -1,-2 3,-3 3,-1 -2,-2 -3,1 -1,1 1,1 2,1 5,0 8,-3 6,-29 6,-37zm160 67c1,1 0,4 -1,5 1,-1 1,-3 1,-5zm-48 -48c2,0 4,0 5,4 0,0 1,1 1,0 0,-2 0,-5 0,-5 0,0 0,-1 1,-1 0,0 0,0 1,1 1,1 1,2 1,4 0,7 0,14 0,21 0,3 -1,4 -2,4 -1,0 -1,-1 -1,-3 0,-1 0,-7 0,-9 0,-1 0,0 0,0 0,2 0,9 -5,12 -1,1 -4,1 -4,-1 0,-2 0,-14 0,-14 4,2 10,-2 10,-6 0,-2 -1,0 -1,0 0,0 -2,3 -4,4 -2,0 -3,-1 -5,-1 1,-3 0,-6 1,-9 0,-1 1,-1 2,-1zm-10 2c2,0 2,1 2,3 0,2 0,6 0,6 -1,1 -4,4 -4,5 2,-1 3,-2 4,-3 0,3 -1,12 -1,14 0,3 -2,4 -3,5 -1,1 -1,-1 -1,-2 0,-1 1,-24 1,-24 0,-1 0,-4 2,-4zm-37 28c-1,-6 -3,-11 -5,-16 0,0 0,-2 -1,-1 0,1 -2,10 -2,10 3,2 6,4 8,7zm-27 -14c0,0 1,-1 1,-1 1,-1 3,-1 4,-1 4,1 2,13 -5,12 0,-3 0,-9 0,-10zm-27 29c0,3 0,6 0,9 1,0 3,0 5,-1 1,-1 5,-6 -5,-8zm1 -12c1,-2 1,-4 1,-7 3,1 6,5 3,6 0,0 -4,1 -4,1zm-8 23c-5,-1 -13,1 -10,8 2,7 7,13 8,16 1,-1 1,-20 2,-24zm1 -21c0,2 0,3 0,5 0,-1 -1,-1 -1,-3 0,0 1,-1 1,-2zm70 -34c0,-2 0,-19 0,-21 0,-2 -1,-3 -1,-3 -2,4 -5,8 -7,11 2,1 3,1 6,-1 -1,1 -2,5 -8,5 -2,4 -8,14 -8,14l10 -2c0,0 5,-2 5,-8 0,0 0,0 0,0 0,2 0,5 0,7 1,0 2,-1 3,-2zm-38 -7c0,-2 2,-4 2,-5 0,4 2,7 4,11 0,0 -4,-4 -6,-6zm68 -24c1,0 2,0 3,0 -2,0 -2,0 -3,0zm-67 9c2,-4 0,-2 4,-9 1,0 3,0 4,0 -2,3 -6,5 -7,9l-1 0zm77 78c1,-1 2,-3 3,-5 -6,6 -6,4 -10,13 -1,2 -1,4 -2,6 3,-1 3,-2 4,-4 1,-3 3,-6 5,-10zm-16 8l-2 9c2,0 4,-1 6,-2 3,-1 2,-2 3,-4 2,-6 3,-6 5,-10 -4,2 -6,4 -11,5 -1,1 -1,1 -1,2zm-13 2l0 9c0,0 10,-1 10,-2 0,0 2,-9 2,-10 -4,1 -7,2 -12,3zm-39 8c0,-2 -2,-7 -3,-9 -1,-1 -4,-2 -7,-2 0,-1 -1,-1 -2,-1 1,1 4,7 4,8 1,2 7,3 8,4zm-16 -14c0,0 0,-1 -1,-1 1,2 5,10 7,11 0,0 1,0 1,0 -1,-2 -3,-6 -3,-8 -1,-1 -2,-2 -4,-2zm6 11c0,0 0,-1 -1,-1 2,4 5,10 6,13 0,1 0,3 4,5 -2,-5 -4,-10 -6,-15 -1,-1 -2,-2 -3,-2zm6 2c-1,0 -2,0 -3,-1 1,4 4,9 5,13 2,4 2,4 6,5 1,0 2,1 2,1 0,-2 -4,-14 -5,-16 0,-1 -4,-1 -5,-2zm42 3l-11 1 2 16c1,0 7,0 9,0 0,-1 0,-16 0,-17zm6 16c1,0 2,0 3,-1 0,-5 1,-11 2,-17l-10 2 0 17c1,0 3,-1 5,-1zm14 -21c-1,1 -7,3 -8,3 -2,3 -2,14 -3,17 2,0 6,-1 8,-2 0,-4 1,-13 3,-18zm-1 10c-1,3 -1,5 -2,8 5,-2 5,-4 5,-9 1,-4 1,-7 2,-11 -1,1 -3,1 -3,3 -1,2 -2,5 -2,9zm-19 -17l1 1c3,0 9,-2 11,-3 -3,-1 -4,0 -8,1 -1,0 -2,1 -4,1zm-44 -1c2,0 3,1 4,0 -2,-1 -4,-1 -6,-2 -1,0 -2,0 -3,0 2,1 3,1 5,2zm-5 -3c0,0 -1,0 -1,-1l0 0c-3,-1 -3,-1 -4,-3l-3 0c1,2 6,5 8,4zm62 0c-1,0 -1,1 -2,1 3,1 4,1 8,-1 2,-1 6,-3 8,-5 -4,0 -3,0 -8,3 -2,1 -4,1 -6,2zm-67 -6c-1,0 -2,0 -2,1 4,1 3,0 6,0l0 -1c-2,0 -3,0 -4,0zm9 0c-2,0 -3,0 -4,0l1 1 9 0 -1 -1c-1,0 -3,0 -5,0zm71 0l-1 0c3,1 4,-1 6,-2 1,-1 2,-2 3,-3 -4,0 -4,3 -8,5 0,0 0,0 0,0zm8 -10c0,0 0,0 0,0 0,3 -1,2 -1,4l2 0c0,-1 2,-6 -1,-4zm-9 1c0,0 0,0 0,-1l-13 5 0 1c0,0 12,-3 13,-4 0,0 0,-1 0,-1zm4 -2c-2,0 -3,1 -3,2 2,0 4,-1 6,-1 1,0 2,0 3,-1 -2,-1 -4,-1 -6,0z"/>
  <path class="fil1" d="M90 147c0,1 -1,2 -2,3 -1,1 -3,1 -4,1 -1,0 -2,-1 -3,-1 -2,0 -2,-1 -3,-1 0,0 -1,0 -2,1 1,-2 2,-3 3,-4 0,1 0,1 0,2 1,0 1,1 2,1 1,1 2,1 3,1 1,0 2,0 2,0 1,-1 2,-1 2,-2 0,-1 0,-1 -1,-2 0,0 -1,-1 -2,-1 -1,-1 -2,-1 -3,-1 -1,-1 -2,-1 -3,-2 0,0 -1,-1 -1,-2 1,-2 1,-3 2,-3 1,-1 2,-1 4,-1 1,0 2,0 3,1 1,0 1,0 1,0 1,0 1,0 2,0 -1,1 -2,2 -3,4 0,-1 0,-1 0,-2 0,0 -1,-1 -1,-1 -1,-1 -1,-1 -2,-1 -1,0 -2,0 -2,0 -1,1 -1,1 -1,2 0,1 0,1 0,2 1,0 2,1 3,1 0,0 1,0 2,0 1,1 2,2 3,2 0,1 1,2 1,3zm12 -6c1,2 -1,4 -6,4 0,0 0,0 -1,0 0,0 0,0 -1,0l1 5 2 1 -7 0 2 -1 0 -6 0 0c-1,0 -2,1 -3,1 1,-1 2,-2 3,-2l0 -5 -2 -1 6 0c2,0 3,0 4,1 2,0 2,1 2,3zm-2 0c0,-2 -2,-3 -4,-3 -1,0 -1,0 -2,0l0 6c1,0 1,0 2,0 1,0 2,-1 3,-1 1,0 1,-1 1,-2zm16 8l-6 1 2 -1 -2 -4c-1,0 -1,1 -1,1 -1,1 -1,1 -1,2 -1,-2 -2,-3 -3,-3 -1,2 -1,3 -1,4 0,0 1,1 2,2l-6 0c1,-1 2,-2 3,-3 0,-1 0,-2 1,-4 -1,0 -1,0 -2,0 0,-1 1,-1 1,-2 0,0 0,1 1,1l1 -5 -1 -1 5 -1 -1 1 3 5c0,0 1,-1 1,-1 0,0 1,1 1,1 0,0 0,1 0,1 -1,0 -1,0 -2,0l3 5 2 1zm-7 -5l-3 -5 -1 5c1,0 1,1 2,2 1,-1 1,-2 2,-2z"/>
 </g>
</svg>
