<?xml version="1.0" encoding="utf-8"?>
<!-- Generator: Adobe Illustrator 17.0.0, SVG Export Plug-In . SVG Version: 6.00 Build 0)  -->
<!DOCTYPE svg PUBLIC "-//W3C//DTD SVG 1.1//EN" "http://www.w3.org/Graphics/SVG/1.1/DTD/svg11.dtd">
<svg version="1.1" id="Слой_1" xmlns="http://www.w3.org/2000/svg" xmlns:xlink="http://www.w3.org/1999/xlink" x="0px" y="0px"
	 width="324.157px" height="31.76px" viewBox="0 0 324.157 31.76" enable-background="new 0 0 324.157 31.76" xml:space="preserve">
<g>
	<linearGradient id="SVGID_1_" gradientUnits="userSpaceOnUse" x1="66.7436" y1="-4.3022" x2="86.11" y2="23.3559">
		<stop  offset="0" style="stop-color:#AFCD6B"/>
		<stop  offset="1" style="stop-color:#96C13D"/>
	</linearGradient>
	<path fill="url(#SVGID_1_)" d="M109.751,17.274c-0.642,0-1.188,0.161-1.637,0.482c-0.449,0.321-0.821,0.723-1.115,1.205
		c-0.294,0.483-0.509,1.002-0.643,1.558c-0.134,0.556-0.2,1.062-0.2,1.517c0,0.991,0.328,1.487,0.985,1.487
		c0.643,0,1.239-0.393,1.789-1.176c0.548-0.784,0.95-1.885,1.205-3.305l0.301-1.708c-0.122-0.027-0.238-0.044-0.351-0.051
		C109.969,17.278,109.86,17.274,109.751,17.274z M76.333,17.033c-0.349,0-0.667,0.077-0.955,0.231
		c-0.288,0.154-0.54,0.359-0.753,0.614c-0.215,0.255-0.399,0.546-0.553,0.874c-0.154,0.329-0.271,0.66-0.351,0.994l1.045-0.161
		c0.509-0.081,0.925-0.184,1.246-0.312c0.322-0.127,0.576-0.268,0.764-0.422c0.187-0.154,0.315-0.311,0.381-0.472
		c0.067-0.16,0.102-0.321,0.102-0.482c0-0.254-0.084-0.462-0.252-0.623C76.838,17.114,76.615,17.033,76.333,17.033z M124.77,0
		H47.922c19.954,1.795-13.894,31.76-13.894,31.76h56.578l2.159-12.115c0.147-0.844,0.258-1.59,0.331-2.24
		c0.074-0.65,0.111-1.156,0.111-1.517v-0.372c0-0.1-0.008-0.211-0.021-0.331c0.443-0.081,0.884-0.122,1.327-0.122
		c0.375,0,0.797,0.041,1.266,0.122c0.027,0.107,0.054,0.234,0.081,0.381c0.026,0.147,0.041,0.368,0.041,0.663
		c0,0.12-0.004,0.234-0.011,0.342c-0.006,0.107-0.023,0.241-0.05,0.402c0.309-0.576,0.777-1.058,1.407-1.446
		c0.629-0.388,1.346-0.583,2.15-0.583c0.937,0,1.658,0.321,2.16,0.965c0.502,0.643,0.754,1.574,0.754,2.793
		c0,0.831-0.128,1.667-0.383,2.512c-0.254,0.844-0.66,1.607-1.216,2.29c-0.556,0.683-1.275,1.239-2.159,1.667
		c-0.884,0.429-1.963,0.644-3.236,0.644c-0.228,0-0.399-0.008-0.513-0.02c-0.113-0.014-0.204-0.027-0.271-0.041l-1.074,6.007h19.57
		c0.464-0.533,2.497-2.877,3.132-3.765c0.708-0.991,1.066-1.619,1.348-2.221l0.101-0.221c-0.148,0.027-0.308,0.043-0.482,0.05
		c-0.174,0.007-0.355,0.01-0.543,0.01h-0.462c-0.173,0-0.327-0.014-0.462-0.041l-0.944-10.387c0.495-0.081,1.012-0.122,1.547-0.122
		c0.469,0,0.937,0.041,1.407,0.122l0.542,9.081c0.523-1.098,0.961-2.053,1.317-2.863c0.354-0.81,0.653-1.506,0.894-2.089
		c0.241-0.583,0.425-1.068,0.553-1.457c0.127-0.388,0.223-0.716,0.291-0.985c0.066-0.267,0.107-0.492,0.121-0.673
		c0.013-0.181,0.02-0.352,0.02-0.512c0-0.134-0.007-0.235-0.02-0.302c-0.014-0.066-0.027-0.134-0.04-0.2
		c0.228-0.041,0.469-0.07,0.723-0.091c0.255-0.02,0.515-0.031,0.783-0.031c0.535,0,1.038,0.041,1.508,0.122
		c0.039,0.12,0.06,0.261,0.06,0.421c0,0.228-0.03,0.48-0.091,0.754c-0.06,0.275-0.134,0.549-0.221,0.824
		c-0.087,0.275-0.181,0.539-0.281,0.794c-0.1,0.254-0.191,0.482-0.271,0.683c-0.348,0.831-0.925,2.082-1.547,3.374
		c-0.622,1.293-1.394,2.809-2.418,4.748c-1.187,2.249-3.632,4.978-3.632,4.978h8.811c3.132,0,5.671-2.539,5.671-5.671V5.672
		C130.441,2.539,127.902,0,124.77,0z M69.906,18.279l-3.738,7.294c-0.241,0.041-0.512,0.07-0.813,0.091
		c-0.302,0.02-0.587,0.03-0.854,0.03c-0.482,0-0.944-0.039-1.387-0.12l-0.583-6.611l-2.833,6.611
		c-0.254,0.027-0.522,0.053-0.803,0.081c-0.281,0.027-0.556,0.039-0.824,0.039c-0.228,0-0.469-0.01-0.724-0.03
		c-0.255-0.02-0.489-0.05-0.703-0.091l-1.065-10.387c0.522-0.081,1.071-0.122,1.647-0.122c0.228,0,0.459,0.007,0.694,0.02
		c0.234,0.014,0.465,0.047,0.693,0.101l0.281,7.213l2.994-7.213c0.415-0.081,0.87-0.122,1.366-0.122
		c0.496,0,0.985,0.041,1.468,0.122l0.562,7.233l1.949-4.521c0.227-0.523,0.382-0.985,0.462-1.387
		c0.081-0.402,0.121-0.736,0.121-1.004c0-0.067-0.003-0.127-0.01-0.181c-0.007-0.053-0.01-0.1-0.01-0.14
		c0.442-0.081,0.951-0.122,1.527-0.122c0.549,0,1.058,0.041,1.527,0.122v0.08c0,0.429-0.073,0.878-0.221,1.346
		C70.481,17.08,70.24,17.636,69.906,18.279z M79.548,19.103c-0.281,0.442-0.656,0.817-1.125,1.124
		c-0.47,0.309-1.002,0.56-1.598,0.754c-0.596,0.194-1.215,0.338-1.858,0.432l-1.346,0.221c0.08,0.644,0.295,1.122,0.643,1.437
		c0.348,0.314,0.857,0.472,1.527,0.472c0.536,0,1.009-0.057,1.417-0.171c0.408-0.114,0.841-0.265,1.295-0.452
		c0.215,0.268,0.358,0.592,0.433,0.975c0.073,0.382,0.11,0.787,0.11,1.215c-0.228,0.107-0.493,0.205-0.794,0.292
		c-0.301,0.088-0.613,0.16-0.935,0.22c-0.321,0.061-0.643,0.107-0.964,0.141c-0.322,0.034-0.61,0.051-0.863,0.051
		c-0.818,0-1.517-0.102-2.1-0.302c-0.583-0.201-1.065-0.486-1.447-0.854c-0.381-0.369-0.664-0.817-0.844-1.347
		c-0.18-0.529-0.271-1.115-0.271-1.758c0-0.817,0.141-1.621,0.422-2.411c0.281-0.79,0.68-1.497,1.196-2.12
		c0.515-0.623,1.145-1.125,1.889-1.508c0.743-0.381,1.577-0.572,2.502-0.572c0.442,0,0.853,0.053,1.235,0.161
		c0.381,0.107,0.713,0.271,0.995,0.492c0.281,0.221,0.501,0.492,0.663,0.814c0.16,0.321,0.24,0.696,0.24,1.125
		C79.969,18.138,79.829,18.66,79.548,19.103z M90.677,21.213c-0.241,0.844-0.647,1.607-1.215,2.29
		c-0.57,0.683-1.324,1.239-2.261,1.667c-0.937,0.429-2.096,0.644-3.476,0.644c-0.629,0-1.206-0.055-1.728-0.161
		c-0.522-0.107-1.018-0.254-1.487-0.442l1.849-10.428c0.241-1.407,0.362-2.472,0.362-3.195c0-0.147-0.005-0.271-0.011-0.372
		c-0.006-0.101-0.016-0.211-0.029-0.331c0.228-0.04,0.488-0.07,0.784-0.09c0.294-0.02,0.548-0.03,0.763-0.03
		c0.388,0,0.817,0.04,1.286,0.121c0.067,0.201,0.1,0.455,0.1,0.764c0,0.59-0.08,1.306-0.24,2.15l-0.503,2.793
		c0.16-0.201,0.338-0.399,0.532-0.592c0.194-0.195,0.419-0.372,0.673-0.533c0.254-0.161,0.549-0.288,0.884-0.382
		c0.335-0.093,0.723-0.14,1.165-0.14c0.938,0,1.658,0.321,2.16,0.965c0.503,0.643,0.754,1.574,0.754,2.793
		C91.039,19.532,90.918,20.368,90.677,21.213z M112.505,21.072c-0.148,0.844-0.255,1.591-0.321,2.24
		c-0.068,0.649-0.102,1.155-0.102,1.517v0.372c0,0.1,0.008,0.211,0.021,0.331c-0.443,0.081-0.878,0.121-1.306,0.121
		c-0.375,0-0.79-0.04-1.246-0.121c-0.028-0.107-0.053-0.234-0.081-0.382c-0.026-0.147-0.04-0.369-0.04-0.664v-0.381
		c0-0.134,0.014-0.288,0.04-0.463c-0.388,0.616-0.884,1.132-1.486,1.547c-0.603,0.415-1.306,0.624-2.11,0.624
		c-0.884,0-1.547-0.282-1.989-0.844c-0.442-0.562-0.663-1.306-0.663-2.23c0-1.004,0.151-1.975,0.453-2.914
		c0.301-0.937,0.75-1.768,1.347-2.491c0.595-0.724,1.335-1.303,2.219-1.739c0.884-0.435,1.915-0.653,3.094-0.653
		c0.589,0,1.138,0.04,1.647,0.12c0.509,0.081,1.011,0.195,1.508,0.342L112.505,21.072z M95.879,23.443
		c0.589,0,1.095-0.137,1.517-0.412c0.422-0.274,0.77-0.623,1.045-1.045c0.274-0.422,0.475-0.887,0.603-1.397
		c0.128-0.508,0.19-1.004,0.19-1.486c0-0.469-0.097-0.875-0.291-1.216c-0.193-0.342-0.525-0.513-0.994-0.513
		c-0.617,0-1.146,0.261-1.587,0.784c-0.442,0.522-0.764,1.386-0.964,2.592l-0.443,2.592c0.108,0.04,0.244,0.067,0.412,0.08
		C95.534,23.436,95.704,23.443,95.879,23.443z M86.679,17.374c-0.617,0-1.146,0.261-1.587,0.784
		c-0.443,0.522-0.764,1.386-0.965,2.592l-0.442,2.572c0.108,0.04,0.244,0.07,0.412,0.091c0.168,0.02,0.338,0.03,0.512,0.03
		c0.59,0,1.096-0.137,1.517-0.412c0.422-0.274,0.77-0.623,1.044-1.045c0.275-0.422,0.475-0.887,0.603-1.397
		c0.128-0.508,0.191-1.004,0.191-1.486c0-0.469-0.097-0.875-0.291-1.216C87.479,17.546,87.147,17.374,86.679,17.374z"/>
	<linearGradient id="SVGID_2_" gradientUnits="userSpaceOnUse" x1="2.8458" y1="31.2838" x2="38.1744" y2="-4.0447">
		<stop  offset="0" style="stop-color:#005190"/>
		<stop  offset="1" style="stop-color:#516DA3"/>
	</linearGradient>
	<path fill="url(#SVGID_2_)" d="M31.761,9.988c-0.273-0.184-0.576-0.312-0.91-0.382C30.518,9.536,30.193,9.5,29.877,9.5h-0.396
		c-0.123,0-0.316,0.018-0.579,0.052l-1.186,6.696c0.228,0.052,0.624,0.079,1.186,0.079c0.422,0,0.852-0.071,1.292-0.211
		c0.439-0.141,0.843-0.378,1.213-0.711c0.369-0.334,0.673-0.774,0.909-1.318c0.238-0.545,0.356-1.23,0.356-2.056
		c0-0.509-0.083-0.931-0.25-1.265C32.253,10.432,32.034,10.172,31.761,9.988z M38.281,0H5.671C2.539,0,0,2.539,0,5.672v20.417
		c0,3.132,2.539,5.671,5.671,5.671h27.506C33.177,31.76,57.27,0,38.281,0z M19.086,25.132c-0.774,0.264-1.644,0.452-2.61,0.567
		c-0.967,0.113-1.872,0.17-2.715,0.17c-1.283,0-2.408-0.184-3.374-0.554c-0.967-0.368-1.775-0.878-2.425-1.528
		c-0.651-0.65-1.138-1.419-1.463-2.306c-0.326-0.887-0.488-1.85-0.488-2.887c0-1.705,0.254-3.303,0.764-4.797
		c0.51-1.494,1.226-2.798,2.149-3.915c0.922-1.116,2.034-1.994,3.334-2.636C13.559,6.605,15,6.285,16.581,6.285
		c0.826,0,1.564,0.052,2.214,0.158c0.65,0.105,1.309,0.308,1.977,0.606c-0.106,0.546-0.242,1.055-0.408,1.529
		c-0.167,0.474-0.4,0.993-0.698,1.555c-0.545-0.228-1.046-0.377-1.503-0.448c-0.457-0.07-0.905-0.105-1.344-0.105
		c-1.178,0-2.184,0.255-3.019,0.764c-0.834,0.51-1.52,1.173-2.056,1.99c-0.536,0.818-0.931,1.745-1.186,2.782
		c-0.255,1.037-0.382,2.083-0.382,3.137c0,1.529,0.373,2.619,1.12,3.268c0.747,0.65,1.736,0.975,2.966,0.975
		c0.246,0,0.518-0.013,0.818-0.04c0.298-0.026,0.527-0.056,0.685-0.091l1.246-7.117c0.351-0.069,0.685-0.118,1.002-0.145
		c0.316-0.026,0.623-0.04,0.923-0.04c0.299,0,0.61,0.014,0.936,0.04c0.325,0.026,0.646,0.075,0.962,0.145L19.086,25.132z
		 M36.137,14.852c-0.378,0.949-0.927,1.771-1.647,2.465c-0.721,0.694-1.6,1.234-2.636,1.621c-1.037,0.387-2.215,0.58-3.532,0.58
		c-0.282,0-0.51-0.004-0.686-0.013c-0.176-0.009-0.342-0.021-0.5-0.04l-1.055,6.09c-0.351,0.053-0.685,0.088-1.001,0.105
		c-0.317,0.017-0.624,0.026-0.923,0.026c-0.263,0-0.558-0.009-0.883-0.026c-0.326-0.018-0.672-0.052-1.041-0.105L25.58,6.548
		c0.386-0.036,0.747-0.07,1.081-0.105c0.333-0.035,0.663-0.066,0.988-0.092c0.325-0.027,0.65-0.044,0.976-0.053
		c0.324-0.009,0.68-0.013,1.067-0.013c0.755,0,1.546,0.07,2.372,0.211c0.826,0.141,1.582,0.409,2.267,0.804
		c0.685,0.396,1.252,0.954,1.7,1.674c0.448,0.721,0.672,1.653,0.672,2.795C36.704,12.875,36.515,13.903,36.137,14.852z"/>
</g>
<g id="XMLID_328_" transform="translate(-502.86126,-41.013507)">
	<rect id="rect19" x="738.252" y="44.752" fill="#F26122" width="13.515" height="24.283"/>
	<path id="XMLID_330_" inkscape:connector-curvature="0" fill="#EA1D25" d="M739.11,56.894c0-4.934,2.317-9.31,5.878-12.142
		c-2.617-2.059-5.921-3.304-9.525-3.304c-8.538,0-15.445,6.907-15.445,15.445s6.907,15.445,15.445,15.445
		c3.604,0,6.907-1.244,9.525-3.304C741.427,66.247,739.11,61.827,739.11,56.894z"/>
	<path id="path22" inkscape:connector-curvature="0" fill="#F69E1F" d="M770,56.894c0,8.538-6.907,15.445-15.445,15.445
		c-3.604,0-6.907-1.244-9.525-3.304c3.604-2.832,5.878-7.208,5.878-12.142s-2.317-9.31-5.878-12.142
		c2.617-2.059,5.921-3.304,9.525-3.304C763.093,41.448,770,48.399,770,56.894z"/>
</g>
<g id="layer1" transform="translate(-457.20465,-631.07671)">
	<path id="path618" fill="#2F67B2" d="M756.224,658.105c3.042-2.752,4.943-6.73,4.943-11.15c0-4.42-1.901-8.395-4.943-11.147
		c-2.661-2.42-6.217-3.892-10.086-3.892c-8.32,0-15.052,6.733-15.052,15.039c0,8.309,6.732,15.042,15.052,15.042
		C750.006,661.998,753.562,660.522,756.224,658.105"/>
	<path id="path620" fill="#2F67B2" d="M756.224,658.105c3.042-2.752,4.943-6.73,4.943-11.15c0-4.42-1.901-8.395-4.943-11.147"/>
	<path id="path622" fill="none" stroke="#2F67B2" stroke-width="0.3097" d="M756.224,658.105c3.042-2.752,4.943-6.73,4.943-11.15
		c0-4.42-1.901-8.395-4.943-11.147"/>
	<path id="path624" fill="#CB2026" d="M766.333,631.916c-3.891,0-7.448,1.472-10.109,3.892c-0.537,0.495-1.051,1.026-1.521,1.594
		h3.042c0.425,0.504,0.805,1.036,1.141,1.592h-5.323c-0.313,0.51-0.604,1.042-0.872,1.592h7.067
		c0.246,0.516,0.447,1.048,0.626,1.594h-8.32c-0.179,0.516-0.336,1.048-0.447,1.592h9.215c0.224,1.026,0.335,2.092,0.335,3.183
		c0,1.671-0.269,3.278-0.783,4.778h-8.319c0.179,0.546,0.38,1.078,0.626,1.594h7.067c-0.269,0.55-0.537,1.082-0.872,1.592h-5.323
		c0.335,0.556,0.738,1.088,1.141,1.592h3.042c-0.47,0.568-0.984,1.099-1.521,1.594c2.661,2.417,6.217,3.892,10.109,3.892
		c8.297,0,15.029-6.733,15.029-15.042C781.362,638.649,774.629,631.916,766.333,631.916"/>
	<path id="path626" fill="#231F20" d="M779.774,655.31h0.067c0.023,0,0.044,0.003,0.044-0.006c0.023-0.012,0.045-0.03,0.045-0.048
		c0-0.019-0.022-0.037-0.045-0.046c0-0.009-0.044-0.006-0.044-0.006h-0.067V655.31L779.774,655.31z M779.774,655.555h-0.089v-0.428
		h0.179c0.044,0,0.067,0,0.112,0.022c0.022,0.024,0.044,0.064,0.044,0.107c0,0.048-0.022,0.092-0.067,0.109l0.067,0.19h-0.112
		l-0.044-0.171h-0.09L779.774,655.555L779.774,655.555z M779.841,655.711c0.201,0,0.38-0.165,0.38-0.37s-0.179-0.37-0.38-0.37
		c-0.201,0-0.358,0.165-0.358,0.37S779.64,655.711,779.841,655.711z M779.349,655.341c0-0.269,0.224-0.486,0.492-0.486
		c0.269,0,0.492,0.217,0.492,0.486c0,0.269-0.224,0.486-0.492,0.486S779.349,655.61,779.349,655.341"/>
	<path id="path628" fill="#231F20" d="M743.789,651.141h-1.901l1.118-5.863l-2.572,5.863h-1.566l-0.313-5.829l-1.252,5.829h-1.722
		l1.454-7.625h2.975l0.044,4.72l2.058-4.72h3.153L743.789,651.141"/>
	<path id="path630" fill="#231F20" d="M764.7,651.064c-0.514,0.141-0.917,0.202-1.342,0.202c-0.962,0-1.476-0.48-1.476-1.362
		c0-0.174,0-0.36,0.044-0.556l0.112-0.608l0.09-0.489l0.872-4.735h1.856l-0.268,1.424h0.962l-0.268,1.506h-0.962l-0.492,2.588
		c-0.022,0.116-0.022,0.199-0.022,0.257c0,0.321,0.179,0.461,0.626,0.461c0.224,0,0.38-0.018,0.514-0.058L764.7,651.064"/>
	<path id="path632" fill="#231F20" d="M757.275,646.897c0,0.785,0.425,1.323,1.431,1.729c0.761,0.312,0.894,0.404,0.894,0.685
		c0,0.388-0.335,0.562-1.095,0.562c-0.559,0-1.096-0.076-1.7-0.247l-0.246,1.432l0.067,0.012l0.358,0.064
		c0.112,0.018,0.269,0.037,0.492,0.055c0.447,0.034,0.805,0.052,1.051,0.052c1.991,0,2.908-0.657,2.908-2.071
		c0-0.849-0.38-1.35-1.32-1.727c-0.805-0.315-0.894-0.382-0.894-0.672c0-0.336,0.313-0.507,0.917-0.507
		c0.38,0,0.894,0.037,1.364,0.095l0.269-1.436c-0.492-0.067-1.23-0.122-1.655-0.122
		C757.991,644.802,757.253,645.755,757.275,646.897"/>
	<path id="path634" fill="#231F20" d="M748.575,648.379c-0.201-0.022-0.291-0.027-0.425-0.027c-1.051,0-1.588,0.318-1.588,0.944
		c0,0.385,0.268,0.633,0.671,0.633C747.993,649.928,748.552,649.296,748.575,648.379L748.575,648.379z M749.849,651.141h-1.566
		l0.045-0.644c-0.492,0.51-1.118,0.751-1.968,0.751c-1.029,0-1.722-0.691-1.722-1.693c0-1.512,1.208-2.392,3.287-2.392
		c0.224,0,0.492,0.015,0.761,0.048c0.067-0.205,0.089-0.293,0.089-0.403c0-0.412-0.336-0.565-1.208-0.565
		c-0.537,0-1.141,0.067-1.566,0.174l-0.246,0.064l-0.179,0.04l0.268-1.393c0.939-0.239,1.543-0.33,2.236-0.33
		c1.61,0,2.46,0.629,2.46,1.821c0,0.305-0.022,0.538-0.156,1.228l-0.38,2.199l-0.067,0.394l-0.045,0.315l-0.045,0.217v0.169"/>
	<path id="path636" fill="#231F20" d="M755.083,647.316c0-0.128,0.022-0.235,0.022-0.315c0-0.504-0.335-0.801-0.895-0.801
		c-0.604,0-1.029,0.397-1.185,1.112L755.083,647.316L755.083,647.316z M756,651.006c-0.648,0.171-1.275,0.253-1.924,0.25
		c-2.102,0-3.176-0.953-3.176-2.777c0-2.129,1.387-3.697,3.265-3.697c1.543,0,2.527,0.877,2.527,2.254
		c0,0.459-0.067,0.901-0.246,1.53h-3.713c-0.022,0.094-0.022,0.138-0.022,0.195c0,0.718,0.559,1.084,1.655,1.084
		c0.671,0,1.275-0.119,1.946-0.391L756,651.006"/>
	<path id="path638" fill="#231F20" d="M774.071,647.588c0-0.648-0.268-1.262-1.028-1.262c-0.962,0-1.543,1.13-1.543,2.126
		c0,0.84,0.402,1.405,1.074,1.393c0.402,0,1.275-0.553,1.431-1.518C774.048,648.104,774.071,647.857,774.071,647.588z
		 M775.972,648.33c-0.269,2.062-1.722,2.976-3.645,2.976c-2.102,0-2.952-1.283-2.952-2.856c0-2.2,1.432-3.687,3.668-3.687
		c1.946,0,2.975,1.225,2.975,2.799C776.017,647.942,776.017,647.969,775.972,648.33"/>
	<path id="path640" fill="#FFFFFF" d="M776.598,650.188h0.067c0,0,0.023,0,0.045-0.009c0.022-0.009,0.022-0.03,0.022-0.049
		c0-0.015,0-0.034-0.022-0.042c0-0.009-0.045-0.009-0.067-0.009h-0.045V650.188L776.598,650.188z M776.598,650.429h-0.09v-0.428
		h0.179c0.022,0,0.067,0.003,0.112,0.025c0.022,0.021,0.044,0.064,0.044,0.107c0,0.046-0.022,0.092-0.067,0.11l0.067,0.187h-0.112
		l-0.067-0.168h-0.066V650.429L776.598,650.429z M776.665,650.585c0.202,0,0.358-0.165,0.358-0.37c0-0.202-0.157-0.367-0.358-0.367
		c-0.201,0-0.38,0.165-0.38,0.367C776.285,650.42,776.464,650.585,776.665,650.585z M776.173,650.215
		c0-0.266,0.224-0.482,0.492-0.482c0.269,0,0.492,0.217,0.492,0.482c0,0.269-0.224,0.486-0.492,0.486
		C776.396,650.7,776.173,650.484,776.173,650.215"/>
	<path id="path642" fill="#FFFFFF" d="M744.258,650.7h-1.879l1.118-5.862l-2.572,5.862h-1.7l-0.313-5.825l-1.118,5.825h-1.7
		l1.454-7.625h2.93l0.134,4.723l2.08-4.723h3.042L744.258,650.7"/>
	<path id="path644" fill="#FFFFFF" d="M765.17,650.628c-0.514,0.141-0.917,0.201-1.342,0.201c-0.962,0-1.476-0.482-1.476-1.362
		c0-0.175,0.022-0.36,0.045-0.556l0.112-0.609l0.089-0.492l0.873-4.735h1.856l-0.268,1.424h0.962l-0.269,1.509h-0.962l-0.492,2.587
		c-0.022,0.113-0.022,0.199-0.022,0.257c0,0.321,0.201,0.458,0.648,0.458c0.201,0,0.358-0.018,0.492-0.058L765.17,650.628"/>
	<path id="path646" fill="#231F20" d="M769.978,646.28l-0.044-0.195l0.38-0.972c-0.09-0.009-0.135-0.012-0.135-0.018
		c-0.112-0.022-0.156-0.034-0.179-0.034c-0.044-0.012-0.112-0.015-0.179-0.015c-0.626,0-1.051,0.272-1.633,1.005l0.202-1.103h-1.946
		l-1.141,6.192h1.857c0.246-1.421,0.358-2.23,0.514-2.902c0.246-1.115,1.074-1.622,1.677-1.509c0.067,0.012,0.112,0.012,0.201,0.046
		l0.112,0.042L769.978,646.28"/>
	<path id="path648" fill="#FFFFFF" d="M770.626,644.551c-0.157-0.061-0.179-0.061-0.201-0.067c-0.09-0.022-0.157-0.034-0.157-0.037
		c-0.067-0.009-0.134-0.015-0.201-0.015c-0.604,0-1.051,0.275-1.633,1.008l0.179-0.941h-1.7l-1.141,6.201h1.879
		c0.671-3.791,0.962-4.457,1.856-4.457c0.067,0,0.134,0.006,0.224,0.015l0.224,0.046L770.626,644.551"/>
	<path id="path650" fill="#FFFFFF" d="M757.744,646.461c0,0.782,0.447,1.323,1.454,1.729c0.76,0.309,0.872,0.4,0.872,0.685
		c0,0.385-0.335,0.559-1.074,0.559c-0.582,0-1.096-0.076-1.7-0.245l-0.268,1.43l0.089,0.015l0.336,0.061
		c0.112,0.022,0.291,0.04,0.514,0.056c0.447,0.034,0.783,0.052,1.029,0.052c2.012,0,2.93-0.654,2.93-2.068
		c0-0.852-0.38-1.35-1.342-1.726c-0.783-0.315-0.873-0.385-0.873-0.675c0-0.333,0.313-0.504,0.917-0.504
		c0.38,0,0.872,0.034,1.364,0.092l0.268-1.435c-0.492-0.067-1.23-0.123-1.677-0.123
		C758.482,644.362,757.744,645.315,757.744,646.461"/>
	<path id="path652" fill="#FFFFFF" d="M748.978,647.939c-0.201-0.021-0.291-0.024-0.425-0.024c-1.051,0-1.588,0.318-1.588,0.944
		c0,0.385,0.246,0.633,0.671,0.633C748.396,649.491,748.933,648.855,748.978,647.939L748.978,647.939z M750.341,650.7h-1.566
		l0.045-0.641c-0.47,0.51-1.118,0.748-1.968,0.748c-1.006,0-1.7-0.691-1.7-1.693c0-1.51,1.208-2.392,3.287-2.392
		c0.201,0,0.47,0.018,0.76,0.049c0.045-0.205,0.067-0.29,0.067-0.403c0-0.41-0.336-0.562-1.208-0.562
		c-0.537,0-1.141,0.064-1.543,0.171l-0.268,0.067l-0.156,0.04l0.246-1.396c0.939-0.238,1.543-0.327,2.236-0.327
		c1.61,0,2.46,0.629,2.46,1.818c0,0.305-0.022,0.538-0.134,1.228l-0.403,2.203l-0.067,0.394l-0.045,0.315l-0.022,0.213
		L750.341,650.7"/>
	<path id="path654" fill="#FFFFFF" d="M755.486,646.879c0-0.131,0-0.235,0-0.318c0-0.504-0.313-0.797-0.872-0.797
		c-0.604,0-1.029,0.394-1.208,1.112L755.486,646.879L755.486,646.879z M756.47,650.569c-0.626,0.168-1.253,0.251-1.901,0.251
		c-2.102,0-3.198-0.953-3.198-2.78c0-2.126,1.386-3.693,3.265-3.693c1.543,0,2.527,0.877,2.527,2.251
		c0,0.458-0.067,0.904-0.224,1.533h-3.712c-0.022,0.095-0.022,0.138-0.022,0.195c0,0.718,0.559,1.085,1.632,1.085
		c0.671,0,1.275-0.122,1.946-0.394L756.47,650.569"/>
	<path id="path656" fill="#FFFFFF" d="M774.518,647.096c0-0.648-0.268-1.261-1.028-1.261c-0.962,0-1.543,1.13-1.543,2.126
		c0,0.843,0.403,1.409,1.074,1.396c0.403,0,1.275-0.553,1.431-1.518C774.496,647.612,774.518,647.365,774.518,647.096z
		 M776.464,647.891c-0.291,2.062-1.723,2.978-3.645,2.978c-2.125,0-2.975-1.286-2.975-2.859c0-2.197,1.454-3.687,3.69-3.687
		c1.945,0,2.974,1.225,2.974,2.798C776.509,647.505,776.509,647.53,776.464,647.891"/>
</g>
<g>
	<g>
		<g>
			<path fill="#2395BC" d="M165.949,4.436l-3.671,22.841h5.867l3.668-22.841C171.814,4.436,165.949,4.436,165.949,4.436z
				 M183.646,13.741c-2.05-1.012-3.307-1.696-3.307-2.731c0.025-0.942,1.063-1.906,3.38-1.906c1.906-0.048,3.307,0.4,4.37,0.846
				l0.532,0.238l0.798-4.779c-1.159-0.448-2.996-0.942-5.266-0.942c-5.794,0-9.873,3.012-9.899,7.321
				c-0.048,3.179,2.921,4.943,5.142,6.002c2.27,1.086,3.042,1.79,3.042,2.754c-0.025,1.481-1.835,2.164-3.524,2.164
				c-2.34,0-3.597-0.352-5.506-1.177l-0.773-0.352l-0.82,4.967c1.378,0.613,3.913,1.152,6.543,1.179
				c6.157,0,10.164-2.967,10.214-7.558C188.594,17.247,187.029,15.318,183.646,13.741z M204.46,4.507h-4.539
				c-1.399,0-2.462,0.402-3.067,1.838l-8.715,20.933h6.157l1.696-4.532h6.889l0.88,4.55h5.43L204.46,4.507z M197.7,18.172
				c0.119,0.012,2.363-7.398,2.363-7.398l1.787,7.398C201.85,18.172,198.858,18.172,197.7,18.172z M157.377,4.436l-5.748,15.519
				l-0.626-3.06c-1.063-3.531-4.395-7.368-8.114-9.274l5.264,19.635h6.208l9.224-22.816h-6.208V4.436z"/>
		</g>
	</g>
	<path fill="#EEC75E" d="M149.069,7.382c-0.448-1.742-1.877-2.916-3.817-2.941h-9.103l-0.094,0.423
		c7.101,1.751,13.062,7.138,14.995,12.205L149.069,7.382z"/>
</g>
</svg>
