<?xml version="1.0" encoding="utf-8"?>
<!-- Generator: Adobe Illustrator 17.0.0, SVG Export Plug-In . SVG Version: 6.00 Build 0)  -->
<!DOCTYPE svg PUBLIC "-//W3C//DTD SVG 1.1//EN" "http://www.w3.org/Graphics/SVG/1.1/DTD/svg11.dtd">
<svg version="1.1" id="Layer_1" xmlns="http://www.w3.org/2000/svg" xmlns:xlink="http://www.w3.org/1999/xlink" x="0px" y="0px"
	 width="155.91px" height="139.943px" viewBox="0 50.498 155.91 139.943" enable-background="new 0 50.498 155.91 139.943"
	 xml:space="preserve">
<path fill="#FFFFFF" d="M38.934,122.16c7.621,0.001,13.8-6.176,13.801-13.797s-6.176-13.8-13.797-13.801s-13.8,6.176-13.801,13.797
	c0,0.001,0,0.003,0,0.004C25.138,115.982,31.315,122.159,38.934,122.16z"/>
<circle fill="#FFFFFF" cx="116.724" cy="108.363" r="13.799"/>
<path fill="#FFFFFF" d="M0.04,108.363c0,21.483,17.413,38.894,38.894,38.894c9.806,0.014,19.252-3.691,26.434-10.368l12.468,13.567
	l12.468-13.559c7.181,6.671,16.624,10.372,26.426,10.358c21.483,0,38.911-17.415,38.911-38.894
	c0.011-10.943-4.599-21.382-12.694-28.745l12.727-13.847H127.46c-29.921-20.36-69.247-20.36-99.168,0H0l12.727,13.847
	C4.633,86.98,0.026,97.42,0.04,108.363z M143.047,108.363c0,14.538-11.785,26.323-26.323,26.323
	c-14.538,0-26.323-11.785-26.323-26.323c0-14.538,11.785-26.323,26.323-26.323S143.047,93.825,143.047,108.363
	C143.047,108.363,143.047,108.363,143.047,108.363z M77.83,63.223c10.032-0.012,19.967,1.974,29.223,5.843
	c-16.613,6.357-29.209,21.218-29.209,38.537c0-17.321-12.6-32.184-29.215-38.539C57.878,65.198,67.805,63.213,77.83,63.223z
	 M38.934,82.04c14.538,0,26.323,11.785,26.323,26.323c0,14.538-11.785,26.323-26.323,26.323S12.612,122.9,12.612,108.363
	C12.612,93.825,24.397,82.04,38.934,82.04C38.934,82.04,38.934,82.04,38.934,82.04z"/>
<path fill="#FFFFFF" d="M154.32,182.729c-0.878,0-1.59,0.712-1.59,1.59s0.712,1.59,1.59,1.59s1.59-0.712,1.59-1.59c0,0,0,0,0,0
	C155.909,183.441,155.198,182.73,154.32,182.729z M154.32,185.66c-0.742,0-1.343-0.601-1.343-1.343s0.601-1.343,1.343-1.343
	s1.343,0.601,1.343,1.343C155.663,185.059,155.061,185.66,154.32,185.66L154.32,185.66z"/>
<path fill="#FFFFFF" d="M154.836,184.049c0.006-0.25-0.192-0.457-0.442-0.463c-0.022-0.001-0.043,0.001-0.065,0.003h-0.508v1.446
	h0.249v-0.526h0.27l0.263,0.526h0.27l-0.29-0.575C154.747,184.389,154.847,184.225,154.836,184.049z M154.318,184.288h-0.247v-0.48
	h0.247c0.167,0,0.269,0.084,0.269,0.24C154.586,184.204,154.485,184.288,154.318,184.288z"/>
<path fill="#FFFFFF" d="M18.218,172.102v-2.739h-4.195v16.304h4.201v-9.779c0-1.77,1.136-2.639,2.906-2.639h2.302v-3.886h-1.974
	C19.922,169.363,18.585,170.165,18.218,172.102z"/>
<path fill="#FFFFFF" d="M27.356,162.92c-1.411-0.01-2.563,1.127-2.572,2.538c-0.01,1.411,1.127,2.563,2.538,2.572
	c1.411,0.009,2.563-1.127,2.572-2.538c0.028-1.393-1.079-2.544-2.472-2.572C27.4,162.92,27.378,162.92,27.356,162.92z"/>
<rect x="25.262" y="169.363" fill="#FFFFFF" width="4.189" height="16.295"/>
<path fill="#FFFFFF" d="M40.987,169.089c-1.786-0.009-3.524,0.572-4.945,1.653v-1.379h-4.18v21.078h4.189v-6.161
	c1.418,1.08,3.153,1.662,4.935,1.657c4.652,0,8.423-3.771,8.423-8.423s-3.771-8.423-8.423-8.423V169.089z M40.617,182.086
	c-2.528,0-4.577-2.049-4.577-4.577s2.049-4.577,4.577-4.577c2.528,0,4.577,2.049,4.577,4.577c0,0.001,0,0.001,0,0.002
	c0,2.527-2.048,4.575-4.575,4.575C40.618,182.086,40.617,182.086,40.617,182.086z"/>
<path fill="#FFFFFF" d="M122.233,176.083l-2.444-0.671c-1.607-0.418-2.235-0.913-2.235-1.763c0-0.85,0.88-1.406,2.141-1.406
	c1.201,0,2.141,0.786,2.141,1.79v0.094h3.861v-0.094c0-2.958-2.411-4.943-6.002-4.943c-3.556,0-6.138,1.985-6.138,4.721
	c0,2.127,1.412,3.731,3.871,4.396l2.342,0.635c1.778,0.493,2.438,1.04,2.438,2.018c0,1.032-0.959,1.726-2.377,1.726
	c-1.485,0-2.48-0.938-2.48-2.332v-0.094h-4.099v0.094c0,3.343,2.685,5.678,6.545,5.678c3.714,0,6.408-2.281,6.408-5.423
	C126.206,178.973,125.517,176.957,122.233,176.083z"/>
<path fill="#FFFFFF" d="M64.279,170.742c-1.421-1.081-3.159-1.662-4.945-1.653c-4.652,0-8.423,3.771-8.423,8.423
	s3.771,8.423,8.423,8.423c1.785,0.008,3.524-0.573,4.945-1.653v1.379h4.189v-16.304h-4.189V170.742z M64.279,177.512
	c0,2.528-2.049,4.577-4.577,4.577c-2.528,0-4.577-2.049-4.577-4.577s2.049-4.577,4.577-4.577c0.001,0,0.001,0,0.002,0
	c2.527,0,4.575,2.048,4.575,4.575C64.279,177.51,64.279,177.511,64.279,177.512z"/>
<path fill="#FFFFFF" d="M83.59,170.742c-1.42-1.081-3.158-1.662-4.943-1.653c-4.652,0-8.423,3.771-8.423,8.423
	s3.771,8.423,8.423,8.423c1.785,0.008,3.522-0.573,4.943-1.653v1.379h4.189v-22.097H83.59V170.742z M79.016,182.086
	c-2.528,0.001-4.578-2.047-4.579-4.575c-0.001-2.528,2.047-4.578,4.575-4.579c2.528-0.001,4.578,2.047,4.579,4.575
	c0,0.001,0,0.003,0,0.004C83.59,180.038,81.542,182.086,79.016,182.086L79.016,182.086z"/>
<rect x="107.235" y="169.363" fill="#FFFFFF" width="4.189" height="16.295"/>
<path fill="#FFFFFF" d="M109.33,162.92c-1.411-0.01-2.563,1.127-2.572,2.538c-0.01,1.411,1.127,2.563,2.538,2.572
	c1.411,0.01,2.563-1.127,2.572-2.538c0.028-1.393-1.079-2.544-2.472-2.572C109.374,162.92,109.352,162.92,109.33,162.92z"/>
<path fill="#FFFFFF" d="M135.894,169.089c-4.652,0-8.423,3.771-8.423,8.423c0,4.652,3.771,8.423,8.423,8.423
	c4.652,0,8.423-3.771,8.423-8.423v0C144.317,172.86,140.546,169.089,135.894,169.089z M135.894,182.086
	c-2.528,0.001-4.578-2.047-4.579-4.575c-0.001-2.528,2.047-4.578,4.575-4.579c2.528-0.001,4.578,2.047,4.579,4.575
	c0,0.001,0,0.003,0,0.004C140.469,180.038,138.421,182.086,135.894,182.086z"/>
<polygon fill="#FFFFFF" points="16.072,163.563 0,163.563 0,167.301 5.95,167.301 5.95,185.66 10.124,185.66 10.124,167.301 
	16.072,167.301 "/>
<polygon fill="#FFFFFF" points="97.355,181.196 93.63,169.363 89.228,169.363 94.817,185.66 99.86,185.66 105.482,169.363 
	101.082,169.363 "/>
<path fill="#FFFFFF" d="M155.659,173.249v-3.886h-1.962c-1.535,0-2.877,0.802-3.24,2.739v-2.739h-4.199v16.304h4.199v-9.779
	c0-1.77,1.136-2.639,2.906-2.639H155.659z"/>
</svg>
