<?xml version="1.0" encoding="utf-8"?>
<!-- Generator: Adobe Illustrator 17.0.0, SVG Export Plug-In . SVG Version: 6.00 Build 0)  -->
<!DOCTYPE svg PUBLIC "-//W3C//DTD SVG 1.1//EN" "http://www.w3.org/Graphics/SVG/1.1/DTD/svg11.dtd">
<svg version="1.1" id="Слой_1" xmlns="http://www.w3.org/2000/svg" xmlns:xlink="http://www.w3.org/1999/xlink" x="0px" y="0px"
	 width="135.545px" height="36.864px" viewBox="0 0 135.545 36.864" enable-background="new 0 0 135.545 36.864"
	 xml:space="preserve">
<path fill="#FFFFFF" d="M8.224,36.864C3.689,36.864,0,33.175,0,28.64V8.224C0,3.689,3.689,0,8.224,0h119.098
	c4.534,0,8.224,3.689,8.224,8.224V28.64c0,4.534-3.689,8.223-8.224,8.223H8.224z"/>
<linearGradient id="SVGID_1_" gradientUnits="userSpaceOnUse" x1="69.2957" y1="-1.7497" x2="88.6621" y2="25.9083">
	<stop  offset="0" style="stop-color:#AFCD6B"/>
	<stop  offset="1" style="stop-color:#96C13D"/>
</linearGradient>
<path fill="url(#SVGID_1_)" d="M112.303,19.827c-0.642,0-1.188,0.161-1.637,0.482c-0.449,0.321-0.821,0.723-1.115,1.205
	c-0.294,0.483-0.509,1.002-0.643,1.558c-0.134,0.556-0.2,1.062-0.2,1.517c0,0.991,0.328,1.487,0.985,1.487
	c0.643,0,1.239-0.393,1.789-1.176c0.548-0.784,0.95-1.885,1.205-3.305l0.301-1.708c-0.122-0.027-0.238-0.044-0.351-0.051
	C112.521,19.83,112.412,19.827,112.303,19.827z M78.885,19.585c-0.349,0-0.667,0.077-0.955,0.231
	c-0.288,0.154-0.54,0.359-0.753,0.614c-0.215,0.255-0.399,0.546-0.553,0.874c-0.154,0.329-0.271,0.66-0.351,0.994l1.044-0.161
	c0.509-0.081,0.925-0.184,1.246-0.312c0.322-0.127,0.576-0.268,0.764-0.422c0.187-0.154,0.315-0.311,0.381-0.472
	c0.067-0.16,0.102-0.321,0.102-0.482c0-0.254-0.084-0.462-0.252-0.623C79.39,19.666,79.167,19.585,78.885,19.585z M127.322,2.552
	H50.474c19.954,1.795-13.894,31.76-13.894,31.76h56.578l2.159-12.115c0.147-0.844,0.258-1.59,0.331-2.24
	c0.074-0.65,0.111-1.156,0.111-1.517v-0.372c0-0.1-0.008-0.211-0.021-0.331c0.443-0.081,0.884-0.122,1.327-0.122
	c0.375,0,0.797,0.041,1.266,0.122c0.027,0.107,0.054,0.234,0.081,0.381c0.026,0.147,0.041,0.368,0.041,0.663
	c0,0.12-0.004,0.234-0.011,0.342c-0.006,0.107-0.023,0.241-0.05,0.402c0.309-0.576,0.777-1.058,1.407-1.446
	c0.629-0.388,1.346-0.583,2.15-0.583c0.937,0,1.658,0.321,2.16,0.965c0.502,0.643,0.754,1.574,0.754,2.793
	c0,0.831-0.128,1.667-0.383,2.512c-0.254,0.844-0.66,1.607-1.216,2.29c-0.556,0.683-1.275,1.239-2.159,1.667
	c-0.884,0.429-1.963,0.644-3.236,0.644c-0.228,0-0.399-0.008-0.513-0.02c-0.113-0.014-0.204-0.027-0.271-0.041l-1.074,6.007h19.57
	c0.464-0.533,2.497-2.877,3.132-3.765c0.708-0.991,1.066-1.619,1.348-2.221l0.101-0.221c-0.148,0.027-0.308,0.043-0.482,0.05
	c-0.174,0.007-0.355,0.01-0.543,0.01h-0.462c-0.173,0-0.327-0.014-0.462-0.041l-0.944-10.387c0.495-0.081,1.012-0.122,1.547-0.122
	c0.469,0,0.937,0.041,1.407,0.122l0.542,9.081c0.523-1.098,0.961-2.053,1.317-2.863c0.354-0.81,0.653-1.506,0.894-2.089
	c0.241-0.583,0.425-1.068,0.553-1.457c0.127-0.388,0.223-0.716,0.291-0.985c0.066-0.267,0.107-0.492,0.121-0.673
	c0.013-0.181,0.02-0.352,0.02-0.512c0-0.134-0.007-0.235-0.02-0.302c-0.014-0.066-0.027-0.134-0.04-0.2
	c0.228-0.041,0.469-0.07,0.723-0.091c0.255-0.02,0.515-0.031,0.783-0.031c0.535,0,1.038,0.041,1.508,0.122
	c0.039,0.12,0.06,0.261,0.06,0.421c0,0.228-0.03,0.48-0.091,0.754c-0.06,0.275-0.134,0.549-0.221,0.824
	c-0.087,0.275-0.181,0.539-0.281,0.794c-0.1,0.254-0.191,0.482-0.271,0.683c-0.348,0.831-0.925,2.082-1.547,3.374
	c-0.622,1.293-1.394,2.809-2.418,4.748c-1.187,2.249-3.632,4.978-3.632,4.978h8.811c3.132,0,5.671-2.539,5.671-5.671V8.224
	C132.993,5.092,130.454,2.552,127.322,2.552z M72.458,20.831l-3.738,7.294c-0.241,0.041-0.512,0.07-0.813,0.091
	c-0.302,0.02-0.587,0.03-0.854,0.03c-0.482,0-0.944-0.039-1.387-0.12l-0.583-6.611l-2.833,6.611
	c-0.254,0.027-0.522,0.053-0.803,0.081c-0.281,0.027-0.556,0.039-0.824,0.039c-0.228,0-0.469-0.01-0.724-0.03
	c-0.255-0.02-0.489-0.05-0.703-0.091l-1.065-10.387c0.522-0.081,1.071-0.122,1.647-0.122c0.228,0,0.459,0.007,0.694,0.02
	c0.234,0.014,0.465,0.047,0.693,0.101l0.281,7.213l2.994-7.213c0.415-0.081,0.87-0.122,1.366-0.122c0.496,0,0.985,0.041,1.468,0.122
	l0.562,7.233l1.949-4.521c0.227-0.523,0.382-0.985,0.462-1.387c0.081-0.402,0.121-0.736,0.121-1.004c0-0.067-0.003-0.127-0.01-0.181
	c-0.007-0.053-0.01-0.1-0.01-0.14c0.442-0.081,0.951-0.122,1.527-0.122c0.549,0,1.058,0.041,1.527,0.122v0.08
	c0,0.429-0.073,0.878-0.221,1.346C73.033,19.633,72.792,20.188,72.458,20.831z M82.1,21.656c-0.281,0.442-0.656,0.817-1.125,1.124
	c-0.47,0.309-1.002,0.56-1.598,0.754c-0.596,0.194-1.215,0.338-1.858,0.432l-1.346,0.221c0.08,0.644,0.295,1.122,0.643,1.437
	c0.348,0.314,0.857,0.472,1.527,0.472c0.536,0,1.009-0.057,1.417-0.171c0.408-0.114,0.841-0.265,1.295-0.452
	c0.215,0.268,0.358,0.592,0.433,0.975c0.073,0.382,0.11,0.787,0.11,1.215c-0.228,0.107-0.493,0.205-0.794,0.292
	c-0.301,0.088-0.613,0.16-0.935,0.22c-0.321,0.061-0.643,0.107-0.964,0.141c-0.322,0.034-0.61,0.051-0.863,0.051
	c-0.818,0-1.517-0.102-2.1-0.302c-0.583-0.201-1.065-0.486-1.447-0.854c-0.381-0.369-0.664-0.817-0.844-1.347
	c-0.18-0.529-0.271-1.115-0.271-1.758c0-0.817,0.141-1.621,0.422-2.411c0.281-0.79,0.68-1.497,1.196-2.12
	c0.515-0.623,1.145-1.125,1.889-1.508c0.743-0.381,1.577-0.572,2.502-0.572c0.442,0,0.853,0.053,1.235,0.161
	c0.381,0.107,0.713,0.271,0.995,0.492c0.281,0.221,0.501,0.492,0.663,0.814c0.16,0.321,0.24,0.696,0.24,1.125
	C82.522,20.691,82.381,21.213,82.1,21.656z M93.229,23.765c-0.241,0.844-0.647,1.607-1.215,2.29
	c-0.57,0.683-1.324,1.239-2.261,1.667c-0.937,0.429-2.096,0.644-3.476,0.644c-0.629,0-1.206-0.055-1.728-0.161
	c-0.522-0.107-1.018-0.254-1.487-0.442l1.849-10.428c0.241-1.407,0.362-2.472,0.362-3.195c0-0.147-0.005-0.271-0.011-0.372
	c-0.006-0.101-0.016-0.211-0.029-0.331c0.228-0.04,0.488-0.07,0.784-0.09c0.294-0.02,0.548-0.03,0.763-0.03
	c0.388,0,0.817,0.04,1.286,0.121c0.067,0.201,0.1,0.455,0.1,0.764c0,0.59-0.08,1.306-0.24,2.15l-0.503,2.793
	c0.16-0.201,0.338-0.399,0.532-0.592c0.194-0.195,0.419-0.372,0.673-0.533c0.254-0.161,0.549-0.288,0.884-0.382
	c0.335-0.093,0.723-0.14,1.165-0.14c0.938,0,1.658,0.321,2.16,0.965c0.503,0.643,0.754,1.574,0.754,2.793
	C93.591,22.084,93.47,22.921,93.229,23.765z M115.057,23.624c-0.148,0.844-0.255,1.591-0.321,2.24
	c-0.068,0.649-0.102,1.155-0.102,1.517v0.372c0,0.1,0.008,0.211,0.021,0.331c-0.443,0.081-0.878,0.121-1.306,0.121
	c-0.375,0-0.79-0.04-1.246-0.121c-0.028-0.107-0.053-0.234-0.081-0.382c-0.026-0.147-0.04-0.369-0.04-0.664v-0.381
	c0-0.134,0.014-0.288,0.04-0.463c-0.388,0.616-0.884,1.132-1.486,1.547c-0.603,0.415-1.306,0.624-2.11,0.624
	c-0.884,0-1.547-0.282-1.989-0.844c-0.442-0.562-0.663-1.306-0.663-2.23c0-1.004,0.151-1.975,0.453-2.914
	c0.301-0.937,0.75-1.768,1.347-2.491c0.595-0.724,1.335-1.303,2.219-1.739c0.884-0.435,1.915-0.653,3.094-0.653
	c0.589,0,1.138,0.04,1.647,0.12c0.509,0.081,1.011,0.195,1.508,0.342L115.057,23.624z M98.431,25.995
	c0.589,0,1.095-0.137,1.517-0.412c0.422-0.274,0.77-0.623,1.045-1.045c0.274-0.422,0.475-0.887,0.603-1.397
	c0.128-0.508,0.19-1.004,0.19-1.486c0-0.469-0.097-0.875-0.291-1.216c-0.193-0.342-0.525-0.513-0.994-0.513
	c-0.617,0-1.146,0.261-1.587,0.784c-0.442,0.522-0.764,1.386-0.964,2.592l-0.443,2.592c0.108,0.04,0.244,0.067,0.412,0.08
	C98.086,25.989,98.256,25.995,98.431,25.995z M89.231,19.927c-0.617,0-1.146,0.261-1.587,0.784
	c-0.443,0.522-0.764,1.386-0.965,2.592l-0.442,2.572c0.108,0.04,0.244,0.07,0.412,0.091c0.168,0.02,0.338,0.03,0.512,0.03
	c0.59,0,1.096-0.137,1.517-0.412c0.422-0.274,0.77-0.623,1.044-1.045c0.275-0.422,0.475-0.887,0.603-1.397
	c0.128-0.508,0.191-1.004,0.191-1.486c0-0.469-0.097-0.875-0.291-1.216C90.031,20.098,89.7,19.927,89.231,19.927z"/>
<linearGradient id="SVGID_2_" gradientUnits="userSpaceOnUse" x1="5.3979" y1="33.8363" x2="40.7264" y2="-1.4922">
	<stop  offset="0" style="stop-color:#005190"/>
	<stop  offset="1" style="stop-color:#516DA3"/>
</linearGradient>
<path fill="url(#SVGID_2_)" d="M34.313,12.541c-0.273-0.184-0.576-0.312-0.91-0.382c-0.334-0.07-0.659-0.106-0.975-0.106h-0.396
	c-0.123,0-0.316,0.018-0.579,0.052l-1.186,6.696c0.228,0.052,0.624,0.079,1.186,0.079c0.422,0,0.852-0.071,1.292-0.211
	c0.439-0.141,0.843-0.378,1.213-0.711c0.369-0.334,0.673-0.774,0.909-1.318c0.238-0.545,0.356-1.23,0.356-2.056
	c0-0.509-0.083-0.931-0.25-1.265C34.805,12.984,34.586,12.725,34.313,12.541z M40.833,2.552H8.224c-3.132,0-5.671,2.539-5.671,5.672
	v20.417c0,3.132,2.539,5.671,5.671,5.671h27.506C35.729,34.313,59.822,2.552,40.833,2.552z M21.638,27.684
	c-0.774,0.264-1.644,0.452-2.61,0.567c-0.967,0.113-1.872,0.17-2.715,0.17c-1.283,0-2.408-0.184-3.374-0.554
	c-0.967-0.368-1.775-0.878-2.425-1.528c-0.651-0.65-1.138-1.419-1.463-2.306c-0.326-0.887-0.488-1.85-0.488-2.887
	c0-1.705,0.254-3.303,0.764-4.797c0.51-1.494,1.226-2.798,2.149-3.915c0.922-1.116,2.034-1.994,3.334-2.636
	c1.301-0.642,2.742-0.962,4.323-0.962c0.826,0,1.564,0.052,2.214,0.158c0.65,0.105,1.309,0.308,1.977,0.606
	c-0.106,0.546-0.242,1.055-0.408,1.529c-0.167,0.474-0.4,0.993-0.698,1.555c-0.545-0.228-1.046-0.377-1.503-0.448
	c-0.457-0.07-0.905-0.105-1.344-0.105c-1.178,0-2.184,0.255-3.019,0.764c-0.834,0.51-1.52,1.173-2.056,1.99
	c-0.536,0.818-0.931,1.745-1.186,2.782c-0.255,1.037-0.382,2.083-0.382,3.137c0,1.529,0.373,2.619,1.12,3.268
	c0.747,0.65,1.736,0.975,2.966,0.975c0.246,0,0.518-0.013,0.818-0.04c0.298-0.026,0.527-0.056,0.685-0.091l1.246-7.117
	c0.351-0.069,0.685-0.118,1.002-0.145c0.316-0.026,0.623-0.04,0.923-0.04c0.299,0,0.61,0.014,0.936,0.04
	c0.325,0.026,0.646,0.075,0.962,0.145L21.638,27.684z M38.689,17.404c-0.378,0.949-0.927,1.771-1.647,2.465
	c-0.721,0.694-1.6,1.234-2.636,1.621c-1.037,0.387-2.215,0.58-3.532,0.58c-0.282,0-0.51-0.004-0.686-0.013
	c-0.176-0.009-0.342-0.021-0.5-0.04l-1.055,6.09c-0.351,0.053-0.685,0.088-1.001,0.105c-0.317,0.017-0.624,0.026-0.923,0.026
	c-0.263,0-0.558-0.009-0.883-0.026c-0.326-0.018-0.672-0.052-1.041-0.105l3.348-19.006c0.386-0.036,0.747-0.07,1.081-0.105
	c0.333-0.035,0.663-0.066,0.988-0.092c0.325-0.027,0.65-0.044,0.976-0.053c0.324-0.009,0.68-0.013,1.067-0.013
	c0.755,0,1.546,0.07,2.372,0.211c0.826,0.141,1.582,0.409,2.267,0.804c0.685,0.396,1.252,0.954,1.7,1.674
	c0.448,0.721,0.672,1.653,0.672,2.795C39.256,15.427,39.067,16.456,38.689,17.404z"/>
</svg>
